<?xml version="1.0" standalone="no"?>
<!DOCTYPE svg PUBLIC "-//W3C//DTD SVG 20010904//EN"
 "http://www.w3.org/TR/2001/REC-SVG-20010904/DTD/svg10.dtd">
<svg version="1.0" xmlns="http://www.w3.org/2000/svg"
 width="800.000000pt" height="479.000000pt" viewBox="0 0 800.000000 479.000000"
 preserveAspectRatio="xMidYMid meet">

<g transform="translate(0.000000,479.000000) scale(0.100000,-0.100000)"
fill="#000000" stroke="none">
<path d="M2220 4693 c-969 -73 -1810 -775 -2054 -1715 -59 -226 -71 -324 -71
-583 0 -259 12 -357 71 -583 208 -802 850 -1440 1658 -1647 289 -74 162 -70
2176 -70 2011 0 1884 -4 2174 69 711 180 1303 701 1577 1388 100 251 148 487
156 769 12 392 -60 733 -226 1074 -357 732 -1062 1220 -1871 1294 -105 10
-3465 14 -3590 4z m960 -698 l0 -385 -920 0 -920 0 0 385 0 385 920 0 920 0 0
-385z m3450 0 l0 -385 -920 0 -920 0 0 385 0 385 920 0 920 0 0 -385z m-1150
-1635 l0 -590 -1465 0 -1465 0 0 590 0 590 1465 0 1465 0 0 -590z m-3370 35
l0 -385 -920 0 -920 0 0 385 0 385 920 0 920 0 0 -385z m5650 0 l0 -385 -920
0 -920 0 0 385 0 385 920 0 920 0 0 -385z m-3972 -1091 c48 -33 52 -57 52
-299 l0 -225 50 0 50 0 0 225 c0 181 3 232 15 255 31 59 34 60 328 60 235 0
271 -2 294 -17 47 -31 53 -63 53 -302 l0 -220 87 -3 87 -3 -1 -32 c-1 -18 -2
-127 -2 -243 l-1 -210 -920 0 -920 0 0 245 0 245 95 0 95 0 0 220 c0 237 6
272 51 304 34 24 553 24 587 0z"/>
<path d="M2182 4258 c-7 -7 -11 -30 -10 -52 1 -41 1 -41 5 -6 3 19 9 40 15 45
7 7 8 2 4 -15 -5 -18 -4 -21 3 -10 5 8 9 19 9 24 0 5 6 13 14 17 9 6 8 9 -7 9
-12 0 -26 -5 -33 -12z"/>
<path d="M2249 4261 c9 -6 12 -18 7 -37 -7 -27 -6 -28 7 -9 29 41 28 55 -1 55
-19 0 -23 -3 -13 -9z"/>
<path d="M2320 4255 c6 -8 8 -20 4 -26 -4 -8 -3 -9 4 -5 7 4 12 13 12 21 0 7
6 16 13 18 6 3 -1 6 -17 6 -24 1 -26 -1 -16 -14z"/>
<path d="M2376 4262 c6 -4 13 -14 16 -22 4 -12 7 -10 17 8 11 20 10 22 -16 22
-15 0 -23 -4 -17 -8z"/>
<path d="M2445 4256 c17 -12 17 -15 3 -35 -10 -15 -18 -19 -23 -11 -4 6 -1 19
6 28 12 15 11 15 -2 2 -9 -8 -21 -28 -27 -45 -12 -29 -12 -29 4 -10 16 19 16
19 10 -12 -3 -18 -4 -33 -2 -33 2 0 14 21 27 48 41 84 41 82 12 82 -25 0 -26
-1 -8 -14z"/>
<path d="M2512 4250 c14 -22 24 -19 15 5 -4 8 -11 15 -17 15 -6 0 -6 -7 2 -20z"/>
<path d="M2705 4258 c-2 -7 -6 -31 -10 -53 -5 -32 -4 -38 6 -28 7 7 12 29 11
50 0 28 2 33 7 18 8 -19 8 -19 20 3 10 19 9 22 -9 22 -11 0 -22 -6 -25 -12z"/>
<path d="M2775 4256 c17 -12 17 -15 3 -35 -10 -15 -18 -19 -23 -11 -4 6 -1 19
6 28 11 15 11 15 -1 4 -9 -8 -15 -32 -15 -57 0 -25 0 -45 1 -45 2 0 45 86 56
113 6 14 2 17 -19 17 -25 0 -26 -1 -8 -14z"/>
<path d="M2839 4256 c6 -7 9 -22 5 -32 -4 -15 -4 -16 4 -4 6 8 10 19 10 24 0
5 6 13 14 17 9 6 4 9 -16 9 -23 0 -26 -3 -17 -14z"/>
<path d="M2898 4263 c6 -2 12 -11 12 -19 0 -21 17 -17 23 6 4 16 0 20 -21 19
-15 0 -21 -3 -14 -6z"/>
<path d="M2970 4255 c6 -8 8 -20 4 -26 -4 -8 -3 -9 4 -5 7 4 12 13 12 21 0 7
6 16 13 18 6 3 -1 6 -17 6 -24 1 -26 -1 -16 -14z"/>
<path d="M3028 4263 c6 -2 12 -11 12 -19 0 -8 5 -14 10 -14 6 0 10 4 10 8 0
12 -22 32 -34 31 -6 0 -5 -3 2 -6z"/>
<path d="M2230 4235 c-13 -16 -6 -65 10 -65 13 0 13 7 -1 31 -7 15 -7 24 2 35
6 8 9 14 6 14 -2 0 -10 -7 -17 -15z"/>
<path d="M2354 4232 c-9 -14 -9 -24 0 -40 7 -13 15 -20 19 -16 3 4 2 15 -3 25
-6 9 -7 25 -4 33 8 21 1 20 -12 -2z"/>
<path d="M2482 4230 c-10 -17 -10 -24 1 -41 13 -18 14 -17 13 21 0 22 -1 40
-1 40 0 0 -6 -9 -13 -20z"/>
<path d="M2812 4230 c-10 -17 -10 -24 1 -41 13 -18 14 -17 13 21 0 22 -1 40
-1 40 0 0 -6 -9 -13 -20z"/>
<path d="M2880 4235 c-13 -16 -6 -65 10 -65 13 0 13 7 -1 31 -7 15 -7 24 2 35
6 8 9 14 6 14 -2 0 -10 -7 -17 -15z"/>
<path d="M3004 4232 c-9 -14 -9 -24 0 -40 7 -13 15 -20 19 -16 3 4 2 15 -3 25
-6 9 -7 25 -4 33 8 21 1 20 -12 -2z"/>
<path d="M2287 4223 c-4 -7 -3 -21 2 -31 6 -11 7 -23 3 -27 -4 -5 -2 -5 4 -2
7 4 14 16 17 27 3 11 1 18 -3 15 -5 -3 -10 3 -12 12 -2 13 -6 15 -11 6z"/>
<path d="M2937 4223 c-4 -7 -3 -21 2 -31 6 -11 7 -23 3 -27 -4 -5 -2 -5 4 -2
7 4 14 16 17 27 3 11 1 18 -3 15 -5 -3 -10 3 -12 12 -2 13 -6 15 -11 6z"/>
<path d="M3045 4183 c-4 -10 -9 -37 -10 -61 -2 -38 -1 -40 12 -22 10 15 11 25
3 40 -6 11 -7 20 -2 20 4 0 8 9 9 20 2 25 -2 26 -12 3z"/>
<path d="M2322 4170 c-9 -15 -10 -26 -2 -40 15 -28 18 -25 16 20 0 22 -1 40
-1 40 0 0 -6 -9 -13 -20z"/>
<path d="M2452 4170 c-10 -16 -10 -25 -1 -43 10 -17 13 -19 17 -7 3 8 10 22
16 30 10 13 9 13 -8 0 -18 -14 -19 -13 -12 13 8 32 5 34 -12 7z"/>
<path d="M2518 4174 c-4 -60 -2 -82 7 -73 5 5 8 26 6 47 -3 41 -10 56 -13 26z"/>
<path d="M2972 4170 c-9 -15 -10 -26 -2 -40 15 -28 18 -25 16 20 0 22 -1 40
-1 40 0 0 -6 -9 -13 -20z"/>
<path d="M2777 4163 c-4 -7 -2 -23 4 -35 10 -18 13 -19 17 -8 3 8 10 22 16 30
9 13 9 13 -6 2 -14 -11 -17 -10 -20 5 -2 13 -6 14 -11 6z"/>
<path d="M2193 4126 c2 -41 3 -42 16 -18 6 12 5 23 -4 36 -12 16 -14 15 -12
-18z"/>
<path d="M2254 4147 c3 -10 6 -25 6 -33 0 -9 5 -12 10 -9 14 9 13 18 -6 41
-14 17 -15 17 -10 1z"/>
<path d="M2384 4121 c1 -35 2 -37 14 -20 10 14 10 24 2 39 -15 28 -18 25 -16
-19z"/>
<path d="M2706 4143 c-2 -10 -8 -38 -11 -63 -6 -37 -5 -43 6 -33 7 7 13 30 12
50 0 26 2 32 6 19 5 -13 10 -16 15 -8 6 10 -9 52 -19 52 -2 0 -6 -8 -9 -17z"/>
<path d="M2840 4149 c0 -20 16 -43 23 -32 3 4 -1 17 -9 28 -10 13 -14 15 -14
4z"/>
<path d="M2904 4147 c3 -10 6 -25 6 -33 0 -9 5 -12 10 -9 14 9 13 18 -6 41
-14 17 -15 17 -10 1z"/>
<path d="M2170 4085 c0 -27 3 -45 7 -42 7 8 6 77 -2 85 -3 3 -5 -16 -5 -43z"/>
<path d="M2279 4083 c-13 -27 -23 -67 -24 -90 0 -24 0 -43 1 -43 11 0 48 105
49 138 0 23 0 42 -1 42 -1 0 -12 -21 -25 -47z m8 -53 c-10 -15 -16 -17 -19 -8
-7 18 14 50 25 39 6 -6 3 -18 -6 -31z"/>
<path d="M2413 4093 c-3 -10 -8 -22 -11 -27 -3 -5 0 -6 6 -2 14 8 16 -22 3
-43 -11 -17 -25 3 -15 22 5 9 4 9 -5 1 -12 -11 -6 -64 8 -64 14 0 40 83 31
100 -5 9 -6 20 -3 24 3 3 3 6 -1 6 -3 0 -9 -8 -13 -17z"/>
<path d="M2743 4093 c-3 -10 -8 -22 -11 -27 -3 -5 0 -6 6 -2 8 4 12 0 12 -10
0 -13 3 -15 11 -7 8 8 8 17 0 31 -6 10 -7 22 -4 26 3 3 3 6 -1 6 -3 0 -9 -8
-13 -17z"/>
<path d="M2221 4090 c1 -29 15 -54 23 -42 4 7 0 22 -8 34 -10 14 -16 17 -15 8z"/>
<path d="M2347 4094 c-3 -4 -2 -15 3 -25 6 -9 7 -26 4 -36 -5 -13 -2 -12 10 5
15 19 15 25 3 42 -8 11 -17 17 -20 14z"/>
<path d="M2477 4094 c-3 -4 -2 -15 4 -26 5 -10 7 -24 3 -30 -4 -7 -3 -8 4 -4
7 4 12 15 12 24 0 22 -14 44 -23 36z"/>
<path d="M2807 4094 c-3 -4 -2 -15 4 -26 5 -10 7 -24 3 -30 -4 -7 -3 -8 4 -4
7 4 12 15 12 24 0 22 -14 44 -23 36z"/>
<path d="M2871 4090 c1 -29 15 -54 23 -42 4 7 0 22 -8 34 -10 14 -16 17 -15 8z"/>
<path d="M2923 4073 c-7 -16 -19 -44 -27 -63 -14 -30 -14 -32 -1 -16 13 17 15
18 15 3 0 -28 14 -19 32 21 16 34 15 82 -1 82 -4 0 -12 -12 -18 -27z m14 -43
c-10 -15 -16 -17 -19 -8 -7 18 14 50 25 39 6 -6 3 -18 -6 -31z"/>
<path d="M2997 4094 c-3 -4 -2 -15 3 -25 6 -9 7 -26 4 -36 -5 -13 -2 -12 10 5
15 19 15 25 3 42 -8 11 -17 17 -20 14z"/>
<path d="M3040 4050 c-11 -20 -4 -70 10 -70 4 0 7 20 6 45 0 25 -1 45 -3 45
-1 0 -7 -9 -13 -20z"/>
<path d="M2194 4042 c-9 -14 -9 -24 0 -40 7 -13 15 -20 19 -16 3 4 2 15 -3 25
-6 9 -7 25 -4 33 8 21 1 20 -12 -2z"/>
<path d="M2514 4042 c-9 -14 -9 -24 2 -43 13 -23 13 -23 14 19 0 48 -1 49 -16
24z"/>
<path d="M2844 4042 c-9 -14 -9 -24 0 -40 7 -13 15 -20 19 -16 3 4 2 15 -3 25
-6 9 -7 25 -4 33 8 21 1 20 -12 -2z"/>
<path d="M2711 4028 c-15 -41 -22 -108 -11 -108 10 0 14 25 11 65 -2 15 0 17
7 6 8 -11 12 -9 22 9 6 12 9 24 6 28 -3 3 -6 0 -6 -7 0 -7 -5 -9 -11 -6 -6 4
-8 13 -5 21 3 8 3 14 0 14 -2 0 -8 -10 -13 -22z"/>
<path d="M2316 4032 c-4 -7 0 -22 8 -34 17 -24 21 -9 7 26 -5 14 -10 16 -15 8z"/>
<path d="M2437 4010 c-14 -26 -14 -30 -2 -16 14 19 21 11 16 -17 -3 -17 17 4
22 23 3 11 1 18 -3 15 -5 -3 -10 3 -12 12 -3 14 -8 9 -21 -17z"/>
<path d="M2775 4018 c3 -13 7 -28 7 -35 2 -17 15 -7 21 17 3 11 1 18 -4 14 -5
-3 -9 2 -9 10 0 9 -5 16 -11 16 -7 0 -9 -8 -4 -22z"/>
<path d="M2966 4032 c-4 -7 0 -22 8 -34 17 -24 21 -9 7 26 -5 14 -10 16 -15 8z"/>
<path d="M2173 3960 c0 -30 2 -43 4 -27 2 15 2 39 0 55 -2 15 -4 2 -4 -28z"/>
<path d="M2482 3980 c-10 -17 -10 -24 1 -41 13 -18 14 -17 13 21 0 22 -1 40
-1 40 0 0 -6 -9 -13 -20z"/>
<path d="M2812 3980 c-9 -15 -10 -26 -2 -40 15 -28 18 -25 16 20 0 22 -1 40
-1 40 0 0 -6 -9 -13 -20z"/>
<path d="M2287 3973 c-4 -7 -2 -23 4 -35 10 -18 13 -19 17 -8 3 8 10 22 16 30
9 13 9 13 -6 2 -14 -11 -17 -10 -20 5 -2 13 -6 14 -11 6z"/>
<path d="M2937 3973 c-4 -7 -2 -23 4 -35 10 -18 13 -19 17 -8 3 8 10 22 16 30
9 13 9 13 -6 2 -14 -11 -17 -10 -20 5 -2 13 -6 14 -11 6z"/>
<path d="M2224 3931 c1 -35 2 -37 14 -20 10 14 10 24 2 39 -15 28 -18 25 -16
-19z"/>
<path d="M2347 3963 c-3 -5 1 -16 8 -26 7 -10 15 -15 18 -10 3 5 -1 16 -8 26
-7 10 -15 15 -18 10z"/>
<path d="M2414 3955 c5 -11 9 -25 9 -32 1 -18 14 -6 20 18 3 11 3 18 0 15 -4
-3 -13 0 -21 7 -14 10 -15 9 -8 -8z"/>
<path d="M2745 3930 c0 -31 2 -35 11 -21 13 20 28 58 18 48 -4 -4 -12 -3 -18
2 -8 7 -11 -2 -11 -29z"/>
<path d="M2874 3931 c1 -35 2 -37 14 -20 10 14 10 24 2 39 -15 28 -18 25 -16
-19z"/>
<path d="M2997 3963 c-3 -5 1 -16 8 -26 7 -10 15 -15 18 -10 3 5 -1 16 -8 26
-7 10 -15 15 -18 10z"/>
<path d="M3041 3922 c-8 -19 -9 -36 -2 -53 5 -13 11 -22 11 -19 4 9 8 100 5
100 -1 0 -8 -13 -14 -28z"/>
<path d="M2439 3893 c-35 -72 -40 -85 -29 -78 6 3 10 -1 10 -9 0 -26 15 -18
29 17 11 25 22 117 15 117 -1 0 -12 -21 -25 -47z m8 -53 c-10 -15 -16 -17 -19
-8 -7 18 14 50 25 39 6 -6 3 -18 -6 -31z"/>
<path d="M2513 3914 c-7 -15 -8 -26 -1 -30 5 -3 7 -15 4 -27 -4 -15 -2 -17 7
-8 9 9 12 79 3 88 0 1 -6 -9 -13 -23z"/>
<path d="M2769 3893 c-35 -72 -40 -85 -29 -78 6 3 10 -1 10 -9 0 -26 15 -18
29 17 11 25 22 117 15 117 -1 0 -12 -21 -25 -47z m8 -53 c-10 -15 -16 -17 -19
-8 -7 18 14 50 25 39 6 -6 3 -18 -6 -31z"/>
<path d="M2253 3903 c-3 -10 -8 -22 -11 -27 -3 -5 0 -6 6 -2 8 4 12 0 12 -10
0 -13 3 -15 11 -7 8 8 8 17 0 31 -6 10 -7 22 -4 26 3 3 3 6 -1 6 -3 0 -9 -8
-13 -17z"/>
<path d="M2903 3903 c-3 -10 -8 -22 -11 -27 -3 -5 0 -6 6 -2 8 4 12 0 12 -10
0 -13 3 -15 11 -7 8 8 8 17 0 31 -6 10 -7 22 -4 26 3 3 3 6 -1 6 -3 0 -9 -8
-13 -17z"/>
<path d="M2186 3901 c-4 -5 -1 -13 5 -16 6 -4 8 -18 4 -34 l-6 -26 16 23 c14
19 14 24 2 43 -9 12 -18 16 -21 10z"/>
<path d="M2315 3893 c5 -10 8 -26 9 -35 0 -11 4 -14 9 -9 12 12 0 61 -14 61
-7 0 -8 -7 -4 -17z"/>
<path d="M2384 3871 c1 -35 2 -37 14 -20 10 14 10 24 2 39 -15 28 -18 25 -16
-19z"/>
<path d="M2707 3893 c-3 -10 -9 -38 -12 -63 -6 -36 -5 -43 6 -33 7 7 12 29 11
50 0 27 2 32 7 19 5 -14 10 -16 15 -8 4 7 1 21 -7 33 -14 19 -15 20 -20 2z"/>
<path d="M2837 3904 c-3 -4 -2 -15 3 -25 6 -9 7 -26 4 -36 -5 -13 -2 -12 10 5
15 19 15 25 3 42 -8 11 -17 17 -20 14z"/>
<path d="M2965 3893 c5 -10 8 -26 9 -35 0 -11 4 -14 9 -9 12 12 0 61 -14 61
-7 0 -8 -7 -4 -17z"/>
<path d="M2173 3835 c0 -27 2 -38 4 -22 2 15 2 37 0 50 -2 12 -4 0 -4 -28z"/>
<path d="M2353 3852 c-7 -12 -8 -24 -2 -33 5 -8 6 -23 3 -34 -6 -20 -6 -20 9
0 10 13 12 25 6 37 -5 9 -6 24 -3 32 8 22 1 20 -13 -2z"/>
<path d="M3003 3852 c-7 -12 -8 -24 -2 -33 5 -8 6 -23 3 -34 -5 -18 -4 -17 11
3 12 17 14 26 6 36 -6 7 -9 21 -5 30 8 22 2 20 -13 -2z"/>
<path d="M2225 3850 c-10 -16 6 -63 18 -51 7 7 6 15 -2 25 -7 8 -10 20 -6 26
3 5 4 10 1 10 -3 0 -7 -4 -11 -10z"/>
<path d="M2875 3850 c-10 -16 6 -63 18 -51 7 7 6 15 -2 25 -7 8 -10 20 -6 26
3 5 4 10 1 10 -3 0 -7 -4 -11 -10z"/>
<path d="M2267 3810 c-14 -30 -16 -44 -8 -59 10 -17 7 -20 -17 -24 l-27 -4 27
-2 c28 -1 29 0 70 92 5 11 4 16 -2 12 -6 -3 -10 1 -10 9 0 27 -14 17 -33 -24z
m20 -31 c-6 -10 -15 -15 -20 -10 -5 5 -3 18 4 29 9 14 16 17 20 10 4 -6 2 -19
-4 -29z"/>
<path d="M2476 3841 c-4 -6 -3 -18 4 -26 9 -10 8 -19 -1 -37 -11 -21 -13 -21
-19 -3 -4 12 -9 15 -14 7 -4 -6 -2 -20 4 -31 8 -16 6 -20 -13 -24 -22 -4 -22
-4 0 -6 30 -2 68 73 55 108 -6 17 -11 21 -16 12z"/>
<path d="M2806 3841 c-4 -6 -3 -18 4 -26 9 -10 8 -19 -1 -37 -11 -21 -13 -21
-19 -3 -4 12 -9 15 -14 7 -4 -6 -2 -21 4 -32 9 -17 8 -20 -13 -20 -26 0 -53
42 -41 63 5 9 4 9 -5 1 -6 -6 -13 -24 -14 -40 -2 -26 1 -28 40 -31 40 -3 42
-2 63 39 16 32 19 49 12 67 -6 17 -11 21 -16 12z"/>
<path d="M2922 3818 c-10 -30 -10 -31 3 -14 14 19 21 11 16 -17 -3 -17 17 4
22 23 3 11 1 18 -4 14 -5 -3 -9 2 -9 10 0 27 -15 18 -28 -16z"/>
<path d="M3042 3800 c-6 -11 -12 -25 -12 -32 0 -6 -7 -20 -17 -30 -15 -17 -15
-18 3 -18 30 0 45 19 33 42 -5 10 -6 18 -1 18 4 0 8 9 9 20 2 25 1 25 -15 0z
m-2 -60 c0 -5 -5 -10 -11 -10 -5 0 -7 5 -4 10 3 6 8 10 11 10 2 0 4 -4 4 -10z"/>
<path d="M2186 3779 c-17 -29 -17 -32 -2 -47 14 -15 18 -15 26 -3 5 9 5 22 -1
32 -5 10 -6 25 -3 33 10 26 0 18 -20 -15z m12 -44 c-3 -3 -9 2 -12 12 -6 14
-5 15 5 6 7 -7 10 -15 7 -18z"/>
<path d="M2322 3789 c-10 -15 -11 -24 -3 -32 17 -17 13 -25 -11 -30 -20 -4
-20 -4 4 -6 25 -1 26 1 25 44 -1 25 -2 45 -2 45 0 0 -6 -10 -13 -21z"/>
<path d="M2517 3793 c-5 -13 -6 -32 -2 -42 4 -15 0 -21 -17 -24 l-23 -4 23 -2
c27 -1 35 15 30 61 -3 30 -4 31 -11 11z"/>
<path d="M2972 3789 c-10 -15 -11 -24 -3 -32 17 -17 13 -25 -11 -30 -20 -4
-20 -4 4 -6 25 -1 26 1 25 44 -1 25 -2 45 -2 45 0 0 -6 -10 -13 -21z"/>
<path d="M2385 3789 c-4 -5 -4 -21 -1 -34 5 -19 2 -25 -16 -28 -16 -4 -13 -5
7 -4 24 2 29 6 27 22 -2 11 -4 28 -5 38 -2 20 -3 21 -12 6z"/>
<path d="M2840 3785 c-10 -12 -10 -19 -2 -27 18 -18 15 -26 -10 -31 -20 -4
-20 -4 4 -6 29 -1 40 15 26 42 -5 9 -6 22 -3 27 10 16 -1 12 -15 -5z"/>
<path d="M2900 3774 c0 -5 5 -16 10 -24 7 -12 3 -17 -18 -22 l-27 -7 29 2 c21
1 31 9 38 27 5 13 6 21 2 17 -4 -4 -13 -2 -21 4 -7 6 -13 8 -13 3z"/>
<path d="M5631 4256 c-7 -8 -11 -32 -8 -53 l4 -38 1 43 c1 23 7 42 13 42 6 0
8 -7 5 -16 -3 -8 -2 -12 4 -9 6 3 10 12 10 20 0 7 6 16 13 18 6 3 2 6 -9 6
-12 1 -27 -5 -33 -13z"/>
<path d="M5696 4262 c6 -4 13 -14 16 -22 4 -12 7 -10 17 8 11 20 10 22 -16 22
-15 0 -23 -4 -17 -8z"/>
<path d="M5765 4256 c17 -12 17 -15 3 -35 -10 -15 -18 -19 -23 -11 -4 6 -1 19
6 28 12 16 12 16 -5 1 -12 -11 -15 -24 -10 -42 8 -35 17 -34 33 6 8 17 18 40
22 50 7 14 3 17 -18 17 -25 0 -26 -1 -8 -14z"/>
<path d="M5829 4256 c6 -7 9 -22 5 -32 -4 -15 -4 -16 4 -4 6 8 10 19 10 24 0
5 6 13 14 17 9 6 4 9 -16 9 -23 0 -26 -3 -17 -14z"/>
<path d="M5888 4263 c6 -2 12 -11 12 -19 0 -21 17 -17 23 6 4 16 0 20 -21 19
-15 0 -21 -3 -14 -6z"/>
<path d="M5962 4250 c14 -22 24 -19 15 5 -4 8 -11 15 -17 15 -6 0 -6 -7 2 -20z"/>
<path d="M6151 4256 c-7 -8 -11 -32 -8 -53 l4 -38 1 43 c1 23 7 42 13 42 6 0
8 -9 4 -22 -4 -17 -3 -19 4 -8 5 8 9 19 9 24 0 5 6 13 14 17 9 6 7 9 -8 9 -12
0 -27 -6 -33 -14z"/>
<path d="M6218 4263 c6 -2 12 -11 12 -19 0 -21 17 -17 23 6 4 16 0 20 -21 19
-15 0 -21 -3 -14 -6z"/>
<path d="M6290 4255 c6 -8 8 -20 4 -26 -4 -8 -3 -9 4 -5 7 4 12 13 12 21 0 7
6 16 13 18 6 3 -1 6 -17 6 -24 1 -26 -1 -16 -14z"/>
<path d="M6346 4262 c6 -4 13 -14 16 -22 4 -12 7 -10 17 8 11 20 10 22 -16 22
-15 0 -23 -4 -17 -8z"/>
<path d="M6415 4256 c17 -12 17 -15 3 -35 -10 -15 -18 -19 -23 -11 -4 6 -1 19
6 28 11 15 11 15 -1 4 -9 -8 -15 -32 -15 -57 0 -25 0 -45 1 -45 2 0 45 86 56
113 6 14 2 17 -19 17 -25 0 -26 -1 -8 -14z"/>
<path d="M6482 4250 c14 -22 24 -19 15 5 -4 8 -11 15 -17 15 -6 0 -6 -7 2 -20z"/>
<path d="M5674 4232 c-9 -14 -9 -24 0 -40 7 -13 15 -20 19 -16 3 4 2 15 -3 25
-6 9 -7 25 -4 33 8 21 1 20 -12 -2z"/>
<path d="M5870 4235 c-13 -16 -6 -65 10 -65 13 0 13 7 -1 31 -7 15 -7 24 2 35
6 8 9 14 6 14 -2 0 -10 -7 -17 -15z"/>
<path d="M6322 4230 c-10 -17 -10 -24 1 -40 17 -24 30 -15 17 11 -6 9 -7 25
-4 33 9 22 1 20 -14 -4z"/>
<path d="M6452 4230 c-10 -17 -10 -24 1 -41 13 -18 14 -17 13 21 0 22 -1 40
-1 40 0 0 -6 -9 -13 -20z"/>
<path d="M6195 4229 c-9 -14 3 -59 16 -59 7 0 8 7 4 18 -5 9 -8 25 -9 35 0 20
-2 21 -11 6z"/>
<path d="M5796 4222 c-4 -7 0 -22 8 -34 17 -24 21 -9 7 26 -5 14 -10 16 -15 8z"/>
<path d="M5927 4223 c-4 -7 -3 -21 2 -31 6 -11 7 -23 3 -27 -4 -5 -2 -5 4 -2
7 4 14 16 17 27 3 11 1 18 -3 15 -5 -3 -10 3 -12 12 -2 13 -6 15 -11 6z"/>
<path d="M6257 4223 c-4 -7 -3 -21 2 -31 6 -11 7 -23 3 -27 -4 -5 -2 -5 4 -2
7 4 14 16 17 27 3 11 1 18 -3 15 -5 -3 -10 3 -12 12 -2 13 -6 15 -11 6z"/>
<path d="M5970 4181 c0 -11 -5 -21 -11 -23 -8 -3 -7 -13 4 -33 l16 -30 1 53
c0 28 -2 52 -5 52 -3 0 -5 -9 -5 -19z"/>
<path d="M5636 4158 c-12 -22 -16 -48 -14 -78 4 -45 5 -45 6 9 2 49 3 53 16
36 12 -17 13 -15 12 23 0 23 -1 42 -2 42 0 0 -9 -15 -18 -32z"/>
<path d="M6292 4170 c-9 -15 -10 -26 -2 -40 15 -28 18 -25 16 20 0 22 -1 40
-1 40 0 0 -6 -9 -13 -20z"/>
<path d="M6490 4175 c-6 -41 -5 -84 3 -76 5 5 7 28 4 52 -2 24 -5 35 -7 24z"/>
<path d="M6160 4165 c-9 -11 -9 -19 4 -36 14 -21 15 -21 13 15 -1 20 -3 36 -3
36 -1 0 -7 -7 -14 -15z"/>
<path d="M5767 4163 c-4 -7 -2 -23 4 -35 10 -18 13 -19 17 -8 3 8 10 22 16 30
9 13 9 13 -6 2 -14 -11 -17 -10 -20 5 -2 13 -6 14 -11 6z"/>
<path d="M6417 4163 c-4 -7 -2 -23 4 -35 10 -18 13 -19 17 -8 3 8 10 22 16 30
9 13 9 13 -6 2 -14 -11 -17 -10 -20 5 -2 13 -6 14 -11 6z"/>
<path d="M5704 4121 c1 -35 2 -37 14 -20 10 14 10 24 2 39 -15 28 -18 25 -16
-19z"/>
<path d="M5830 4149 c0 -20 16 -43 23 -32 3 4 -1 17 -9 28 -10 13 -14 15 -14
4z"/>
<path d="M5894 4147 c3 -10 6 -25 6 -33 0 -9 5 -12 10 -9 14 9 13 18 -6 41
-14 17 -15 17 -10 1z"/>
<path d="M6213 4134 c-10 -22 -10 -24 3 -14 11 10 14 9 14 -4 0 -10 5 -14 10
-11 13 8 13 18 -2 38 -12 15 -14 15 -25 -9z"/>
<path d="M6354 4121 c1 -35 2 -37 14 -20 10 14 10 24 2 39 -15 28 -18 25 -16
-19z"/>
<path d="M6143 4085 c0 -27 2 -38 4 -22 2 15 2 37 0 50 -2 12 -4 0 -4 -28z"/>
<path d="M6249 4083 c-35 -72 -40 -85 -29 -78 6 3 10 -1 10 -9 0 -26 15 -18
29 17 11 25 22 117 15 117 -1 0 -12 -21 -25 -47z m8 -53 c-9 -13 -18 -17 -21
-11 -9 14 16 53 27 42 6 -6 3 -18 -6 -31z"/>
<path d="M5733 4093 c-3 -10 -8 -22 -11 -27 -3 -5 0 -6 6 -2 8 4 12 0 12 -10
0 -13 3 -15 11 -7 8 8 8 17 0 31 -6 10 -7 22 -4 26 3 3 3 6 -1 6 -3 0 -9 -8
-13 -17z"/>
<path d="M6383 4093 c-3 -10 -8 -22 -11 -27 -3 -5 0 -6 6 -2 8 4 12 0 12 -10
0 -13 3 -15 11 -7 8 8 8 17 0 31 -6 10 -7 22 -4 26 3 3 3 6 -1 6 -3 0 -9 -8
-13 -17z"/>
<path d="M5667 4094 c-3 -4 -2 -15 3 -25 6 -9 7 -26 4 -36 -6 -16 -5 -15 9 2
11 15 13 25 5 40 -14 26 -14 26 -21 19z"/>
<path d="M5795 4083 c5 -10 8 -26 9 -35 0 -11 4 -14 9 -9 12 12 0 61 -14 61
-7 0 -8 -7 -4 -17z"/>
<path d="M5861 4090 c1 -29 15 -54 23 -42 4 7 0 22 -8 34 -10 14 -16 17 -15 8z"/>
<path d="M5913 4073 c-7 -16 -19 -44 -27 -63 -14 -30 -14 -32 -1 -16 13 17 15
18 15 3 0 -9 3 -17 8 -17 7 1 35 56 47 95 6 16 5 17 -4 5 -9 -13 -11 -13 -11
3 0 26 -14 21 -27 -10z m14 -43 c-10 -15 -16 -17 -19 -8 -7 18 14 50 25 39 6
-6 3 -18 -6 -31z"/>
<path d="M6194 4061 c1 -35 2 -37 14 -20 11 16 11 22 -1 39 -14 20 -14 18 -13
-19z"/>
<path d="M6317 4094 c-3 -4 -2 -15 3 -25 6 -9 7 -26 4 -36 -6 -16 -5 -15 9 2
11 15 13 25 5 40 -14 26 -14 26 -21 19z"/>
<path d="M6445 4083 c5 -10 8 -26 9 -35 0 -11 4 -14 9 -9 12 12 0 61 -14 61
-7 0 -8 -7 -4 -17z"/>
<path d="M5963 4044 c-10 -22 -10 -30 2 -48 14 -19 15 -18 15 27 0 26 -1 47
-2 47 -2 0 -8 -12 -15 -26z"/>
<path d="M5834 4042 c-9 -14 -9 -24 0 -40 7 -13 15 -20 19 -16 3 4 2 15 -3 25
-6 9 -7 25 -4 33 8 21 1 20 -12 -2z"/>
<path d="M6164 4042 c-9 -14 -9 -24 0 -40 7 -13 15 -20 19 -16 3 4 2 15 -3 25
-6 9 -7 25 -4 33 8 21 1 20 -12 -2z"/>
<path d="M6484 4043 c-8 -13 -7 -26 2 -48 l13 -30 1 48 c0 26 -1 47 -3 47 -1
0 -7 -8 -13 -17z"/>
<path d="M5705 4039 c-4 -5 -4 -22 0 -36 4 -19 9 -23 17 -15 8 8 8 15 -1 26
-7 8 -10 20 -6 26 3 5 4 10 1 10 -3 0 -8 -5 -11 -11z"/>
<path d="M6355 4039 c-4 -5 -4 -22 0 -37 6 -26 7 -26 21 -8 8 11 14 25 14 30
0 6 -4 5 -9 -3 -6 -9 -11 -10 -15 -2 -4 6 -4 16 -1 21 3 6 4 10 1 10 -3 0 -8
-5 -11 -11z"/>
<path d="M5632 4024 c-6 -11 -10 -67 -9 -130 0 -80 2 -94 6 -54 4 38 8 49 14
37 4 -11 4 -24 0 -29 -3 -7 -1 -8 5 -4 17 10 15 42 -3 60 -17 17 -22 111 -5
101 6 -4 8 -16 5 -28 -5 -20 -5 -20 5 -4 8 12 8 27 2 45 -8 26 -9 26 -20 6z"/>
<path d="M5765 4018 c3 -13 7 -28 7 -35 2 -17 15 -7 21 17 3 11 1 18 -4 14 -5
-3 -9 2 -9 10 0 9 -5 16 -11 16 -7 0 -9 -8 -4 -22z"/>
<path d="M6286 4032 c-4 -7 0 -22 8 -34 17 -24 21 -9 7 26 -5 14 -10 16 -15 8z"/>
<path d="M6415 4018 c3 -13 7 -28 7 -35 2 -17 15 -7 21 17 3 11 1 18 -4 14 -5
-3 -9 2 -9 10 0 9 -5 16 -11 16 -7 0 -9 -8 -4 -22z"/>
<path d="M6143 3960 c0 -30 2 -43 4 -27 2 15 2 39 0 55 -2 15 -4 2 -4 -28z"/>
<path d="M5673 3977 c-8 -17 -7 -28 2 -40 11 -15 12 -12 11 23 0 22 -1 40 -2
40 0 0 -5 -10 -11 -23z"/>
<path d="M5802 3980 c-9 -15 -10 -26 -2 -40 15 -28 18 -25 16 20 0 22 -1 40
-1 40 0 0 -6 -9 -13 -20z"/>
<path d="M6452 3980 c-9 -15 -10 -26 -2 -40 15 -28 18 -25 16 20 0 22 -1 40
-1 40 0 0 -6 -9 -13 -20z"/>
<path d="M6198 3983 c0 -5 -2 -27 -3 -50 -1 -38 0 -40 12 -23 11 15 11 25 3
40 -6 11 -8 25 -5 30 3 6 4 10 1 10 -3 0 -7 -3 -8 -7z"/>
<path d="M6320 3975 c-9 -11 -9 -19 4 -36 14 -21 15 -21 13 15 -1 20 -3 36 -3
36 -1 0 -7 -7 -14 -15z"/>
<path d="M5927 3973 c-4 -7 -3 -22 3 -33 13 -25 16 -25 23 0 3 11 1 18 -3 15
-5 -3 -10 3 -12 12 -2 13 -6 15 -11 6z"/>
<path d="M6257 3973 c-4 -7 -2 -23 4 -35 10 -18 13 -19 17 -8 3 8 10 22 16 30
9 13 9 13 -6 2 -14 -11 -17 -10 -20 5 -2 13 -6 14 -11 6z"/>
<path d="M5735 3930 c0 -31 2 -35 11 -21 13 20 28 58 18 48 -4 -4 -12 -3 -18
2 -8 7 -11 -2 -11 -29z"/>
<path d="M5864 3931 c1 -35 2 -37 14 -20 10 14 10 24 2 39 -15 28 -18 25 -16
-19z"/>
<path d="M6385 3930 c0 -31 2 -35 11 -21 13 20 28 58 18 48 -4 -4 -12 -3 -18
2 -8 7 -11 -2 -11 -29z"/>
<path d="M5759 3893 c-35 -72 -40 -85 -29 -78 6 3 10 -1 10 -9 0 -26 15 -18
29 17 11 25 22 117 15 117 -1 0 -12 -21 -25 -47z m8 -53 c-10 -15 -16 -17 -19
-8 -7 18 14 50 25 39 6 -6 3 -18 -6 -31z"/>
<path d="M5970 3926 c0 -8 -5 -16 -11 -18 -8 -3 -7 -13 4 -33 l16 -30 1 48 c0
26 -2 47 -5 47 -3 0 -5 -6 -5 -14z"/>
<path d="M6409 3893 c-35 -72 -40 -85 -29 -78 6 3 10 -1 10 -9 0 -26 15 -18
29 17 11 25 22 117 15 117 -1 0 -12 -21 -25 -47z m8 -53 c-10 -15 -16 -17 -19
-8 -7 18 14 50 25 39 6 -6 3 -18 -6 -31z"/>
<path d="M6483 3915 c-7 -16 -8 -27 -1 -31 5 -3 7 -15 4 -27 -3 -13 -2 -17 5
-10 6 6 9 29 7 51 -3 40 -3 41 -15 17z"/>
<path d="M5893 3903 c-3 -10 -8 -22 -11 -27 -3 -5 0 -6 6 -2 8 4 12 0 12 -10
0 -13 3 -15 11 -7 8 8 8 17 0 31 -6 10 -7 22 -4 26 3 3 3 6 -1 6 -3 0 -9 -8
-13 -17z"/>
<path d="M5704 3871 c1 -35 2 -37 14 -20 11 16 11 22 -1 39 -14 20 -14 18 -13
-19z"/>
<path d="M5826 3901 c-4 -5 -1 -13 5 -16 6 -4 8 -18 4 -34 l-6 -26 16 23 c14
19 14 24 2 43 -9 12 -18 16 -21 10z"/>
<path d="M6157 3904 c-3 -4 -2 -15 4 -26 5 -10 7 -24 3 -31 -4 -6 1 -5 11 5
16 14 16 18 3 37 -8 11 -18 18 -21 15z"/>
<path d="M6217 3891 c-3 -11 -1 -19 4 -15 5 3 9 -2 9 -11 0 -9 5 -13 10 -10
13 8 13 18 -3 40 -13 17 -14 17 -20 -4z"/>
<path d="M6285 3893 c5 -10 8 -26 9 -35 0 -11 4 -14 9 -9 12 12 0 61 -14 61
-7 0 -8 -7 -4 -17z"/>
<path d="M6354 3871 c1 -35 2 -37 14 -20 11 16 11 22 -1 39 -14 20 -14 18 -13
-19z"/>
<path d="M6143 3835 c0 -27 2 -38 4 -22 2 15 2 37 0 50 -2 12 -4 0 -4 -28z"/>
<path d="M5673 3852 c-7 -12 -8 -24 -2 -33 5 -8 6 -23 3 -34 -6 -20 -6 -20 9
0 10 13 12 25 6 37 -5 9 -6 24 -3 32 8 22 1 20 -13 -2z"/>
<path d="M6323 3852 c-7 -12 -8 -24 -2 -33 5 -8 6 -23 3 -34 -6 -20 -6 -20 9
0 10 13 12 25 6 37 -5 9 -6 24 -3 32 8 22 1 20 -13 -2z"/>
<path d="M5865 3850 c-10 -16 6 -63 18 -51 7 7 6 15 -2 25 -7 8 -10 20 -6 26
3 5 4 10 1 10 -3 0 -7 -4 -11 -10z"/>
<path d="M6195 3850 c-10 -16 6 -63 18 -51 7 7 6 15 -2 25 -7 8 -10 20 -6 26
3 5 4 10 1 10 -3 0 -7 -4 -11 -10z"/>
<path d="M5796 3841 c-4 -6 -3 -18 4 -26 9 -10 8 -19 -1 -37 -11 -21 -13 -21
-19 -3 -4 12 -9 15 -14 7 -4 -6 -2 -21 4 -32 9 -17 8 -20 -13 -20 -25 0 -53
42 -41 62 5 7 2 8 -5 3 -8 -5 -11 -18 -7 -37 5 -24 3 -29 -9 -24 -8 3 -17 1
-20 -4 -3 -5 19 -9 50 -9 54 0 54 1 75 42 16 31 19 48 12 66 -6 17 -11 21 -16
12z"/>
<path d="M5907 3810 c-14 -30 -16 -44 -8 -59 10 -17 7 -20 -17 -24 l-27 -4 27
-2 c23 -1 30 6 52 53 26 55 34 84 16 56 -8 -13 -10 -12 -10 3 0 28 -14 19 -33
-23z m20 -31 c-6 -10 -15 -15 -20 -10 -5 5 -3 18 4 29 9 14 16 17 20 10 4 -6
2 -19 -4 -29z"/>
<path d="M6237 3810 c-14 -30 -16 -44 -8 -59 10 -17 7 -20 -17 -24 l-27 -4 27
-2 c28 -1 29 0 70 92 5 11 4 16 -2 12 -6 -3 -10 1 -10 9 0 27 -14 17 -33 -24z
m20 -31 c-6 -10 -15 -15 -20 -10 -5 5 -3 18 4 29 9 14 16 17 20 10 4 -6 2 -19
-4 -29z"/>
<path d="M6446 3841 c-4 -6 -3 -18 4 -26 9 -10 8 -19 -1 -37 -11 -21 -13 -21
-19 -3 -4 12 -9 15 -14 7 -4 -6 -2 -21 4 -32 9 -17 8 -20 -13 -20 -25 0 -53
42 -41 62 5 7 2 8 -5 3 -8 -4 -11 -18 -7 -36 4 -23 2 -28 -17 -32 -12 -2 4 -4
35 -5 l57 -1 21 42 c16 31 19 48 12 66 -6 17 -11 21 -16 12z"/>
<path d="M5972 3803 c-1 -12 -8 -23 -14 -26 -10 -3 -10 -7 1 -20 12 -15 10
-18 -10 -26 -13 -5 -17 -10 -9 -10 31 -1 41 15 37 60 -2 24 -4 34 -5 22z"/>
<path d="M5636 3780 c-14 -25 -15 -34 -6 -45 21 -25 29 -17 27 30 -1 25 -2 45
-2 45 -1 0 -9 -14 -19 -30z m8 -36 c3 -8 2 -12 -4 -9 -6 3 -10 10 -10 16 0 14
7 11 14 -7z"/>
<path d="M6156 3779 c-17 -29 -17 -32 -2 -47 15 -15 18 -15 26 -2 5 9 5 19 -1
27 -6 6 -8 21 -4 33 9 29 2 25 -19 -11z m14 -40 c0 -6 -4 -7 -10 -4 -5 3 -10
11 -10 16 0 6 5 7 10 4 6 -3 10 -11 10 -16z"/>
<path d="M6292 3790 c-9 -15 -10 -26 -2 -40 8 -15 6 -19 -13 -23 -19 -4 -19
-4 5 -6 25 -1 26 1 25 44 -1 25 -2 45 -2 45 0 0 -6 -9 -13 -20z"/>
<path d="M6492 3798 c-1 -9 -8 -18 -14 -21 -10 -4 -10 -7 0 -18 18 -19 15 -27
-10 -32 l-23 -4 23 -2 c27 -1 35 15 29 61 -2 18 -5 26 -5 16z"/>
<path d="M5830 3785 c-10 -12 -10 -19 -2 -27 18 -18 15 -26 -10 -31 -20 -4
-20 -4 4 -6 29 -1 40 15 26 42 -5 9 -6 22 -3 27 10 16 -1 12 -15 -5z"/>
<path d="M3871 2626 c-7 -8 -11 -33 -8 -58 l4 -43 1 48 c2 44 14 62 25 35 4
-8 6 -7 6 4 1 9 7 19 14 21 6 3 2 6 -9 6 -12 1 -27 -5 -33 -13z"/>
<path d="M3930 2634 c0 -6 27 -34 33 -34 3 0 7 9 10 20 4 16 0 20 -19 20 -13
0 -24 -3 -24 -6z"/>
<path d="M4009 2621 c6 -10 7 -22 3 -26 -4 -5 -2 -5 4 -2 7 4 14 16 17 27 4
15 0 20 -14 20 -16 0 -18 -3 -10 -19z"/>
<path d="M4072 2621 c7 -11 16 -17 20 -15 5 3 6 9 3 14 -3 4 1 11 7 13 7 3 1
6 -15 6 -24 1 -26 -1 -15 -18z"/>
<path d="M4140 2621 c7 -13 7 -22 0 -26 -5 -3 -10 -11 -10 -18 0 -13 23 19 33
46 5 12 1 17 -14 17 -16 0 -18 -3 -9 -19z"/>
<path d="M4203 2615 c7 -13 14 -20 15 -14 5 14 -6 39 -17 39 -5 0 -4 -11 2
-25z"/>
<path d="M4382 2628 c-7 -7 -11 -32 -10 -57 1 -40 2 -41 5 -11 2 19 6 42 9 50
4 13 6 13 14 0 8 -13 10 -13 10 2 0 9 6 19 13 21 6 3 3 6 -8 6 -12 1 -26 -4
-33 -11z"/>
<path d="M4437 2618 c-6 -22 -6 -22 8 -4 13 17 15 18 15 3 0 -24 17 -21 23 3
4 16 0 20 -18 20 -15 0 -25 -7 -28 -22z"/>
<path d="M4520 2620 c6 -11 12 -20 14 -20 2 0 6 9 9 20 4 15 0 20 -14 20 -17
0 -18 -3 -9 -20z"/>
<path d="M4581 2623 c7 -10 14 -20 15 -21 1 -2 7 6 14 17 10 19 8 21 -16 21
-24 0 -25 -2 -13 -17z"/>
<path d="M4649 2621 c6 -10 7 -22 3 -26 -4 -5 -2 -5 4 -2 7 4 14 16 17 27 4
15 0 20 -14 20 -16 0 -18 -3 -10 -19z"/>
<path d="M4713 2615 c7 -13 14 -20 15 -14 5 14 -6 39 -17 39 -5 0 -4 -11 2
-25z"/>
<path d="M4890 2620 c-6 -12 -9 -38 -7 -58 l4 -37 1 42 c1 23 7 45 12 48 6 3
10 1 10 -5 0 -6 5 -8 10 -5 6 4 8 10 5 15 -3 4 1 11 7 13 7 3 3 6 -9 6 -13 1
-27 -8 -33 -19z"/>
<path d="M4964 2605 c0 -29 1 -32 11 -17 23 34 25 52 7 52 -13 0 -17 -9 -18
-35z"/>
<path d="M5032 2620 c9 -13 14 -16 17 -8 2 7 9 16 15 20 6 4 -1 8 -17 8 -25 0
-26 -2 -15 -20z"/>
<path d="M5092 2620 c15 -23 33 -27 25 -6 -3 8 -1 17 6 20 7 2 0 5 -16 5 -25
1 -26 -1 -15 -19z"/>
<path d="M5159 2621 c6 -10 7 -22 3 -26 -4 -5 -2 -5 4 -2 7 4 14 16 17 27 4
15 0 20 -14 20 -16 0 -18 -3 -10 -19z"/>
<path d="M5219 2627 c7 -9 10 -25 7 -34 -6 -14 -4 -15 4 -7 15 15 9 46 -10 52
-13 5 -13 3 -1 -11z"/>
<path d="M3764 2365 c0 -148 2 -211 3 -138 2 72 2 194 0 270 -1 76 -3 17 -3
-132z"/>
<path d="M2784 2365 c0 -143 2 -200 3 -127 2 73 2 190 0 260 -1 70 -3 10 -3
-133z"/>
<path d="M3254 2365 c0 -143 2 -200 3 -127 2 73 2 190 0 260 -1 70 -3 10 -3
-133z"/>
<path d="M4042 2600 c-9 -15 -10 -26 -2 -40 15 -28 18 -25 16 20 0 22 -1 40
-1 40 0 0 -6 -9 -13 -20z"/>
<path d="M4172 2600 c-9 -15 -10 -26 -2 -40 13 -25 16 -25 23 0 3 12 1 18 -5
14 -7 -5 -9 2 -4 20 8 31 5 33 -12 6z"/>
<path d="M4682 2600 c-9 -15 -10 -26 -2 -40 15 -28 18 -25 16 20 0 22 -1 40
-1 40 0 0 -6 -9 -13 -20z"/>
<path d="M5192 2600 c-9 -15 -10 -26 -2 -40 15 -28 18 -25 16 20 0 22 -1 40
-1 40 0 0 -6 -9 -13 -20z"/>
<path d="M2860 2595 c0 -8 4 -15 10 -15 5 0 7 7 4 15 -4 8 -8 15 -10 15 -2 0
-4 -7 -4 -15z"/>
<path d="M3376 2598 c-3 -7 -7 -26 -11 -42 -5 -25 -4 -28 8 -17 12 9 16 9 20
-1 4 -8 6 -7 6 5 1 9 -3 17 -8 17 -4 0 -6 11 -3 25 4 25 -5 35 -12 13z"/>
<path d="M4550 2595 c-9 -11 -9 -19 4 -36 14 -21 15 -21 13 15 -1 20 -3 36 -3
36 -1 0 -7 -7 -14 -15z"/>
<path d="M3804 2360 c0 -135 2 -190 3 -122 2 67 2 177 0 245 -1 67 -3 12 -3
-123z"/>
<path d="M4996 2592 c-4 -6 -2 -21 4 -33 15 -28 21 -20 12 16 -5 18 -11 25
-16 17z"/>
<path d="M3914 2551 c1 -35 2 -37 14 -20 11 16 11 22 -1 39 -14 20 -14 18 -13
-19z"/>
<path d="M3970 2584 c0 -5 7 -19 15 -30 8 -10 15 -14 15 -8 0 5 -7 19 -15 30
-8 10 -15 14 -15 8z"/>
<path d="M4104 2551 c1 -35 2 -37 14 -20 10 14 10 24 2 39 -15 28 -18 25 -16
-19z"/>
<path d="M4424 2551 c1 -35 2 -37 14 -20 10 14 10 24 2 39 -15 28 -18 25 -16
-19z"/>
<path d="M4480 2584 c0 -5 7 -19 15 -30 8 -10 15 -14 15 -8 0 5 -7 19 -15 30
-8 10 -15 14 -15 8z"/>
<path d="M4603 2564 c-11 -23 -10 -24 4 -12 15 12 16 10 9 -17 -7 -30 -7 -30
9 -8 12 18 13 27 5 43 -13 25 -13 25 -27 -6z"/>
<path d="M4934 2551 c1 -35 2 -37 14 -20 10 14 10 24 2 39 -15 28 -18 25 -16
-19z"/>
<path d="M5063 2556 c2 -41 3 -42 16 -18 6 12 5 23 -4 36 -12 16 -14 15 -12
-18z"/>
<path d="M5124 2577 c3 -10 6 -25 6 -33 0 -9 5 -12 10 -9 14 9 13 18 -6 41
-14 17 -15 17 -10 1z"/>
<path d="M2870 2561 c0 -6 4 -13 10 -16 6 -3 7 1 4 9 -7 18 -14 21 -14 7z"/>
<path d="M4140 2532 c-8 -15 -16 -31 -19 -36 -2 -5 1 -6 6 -3 17 11 22 -17 8
-37 -14 -19 -31 -5 -19 17 5 9 4 9 -5 1 -12 -11 -6 -64 8 -64 3 0 14 18 24 40
13 29 16 44 8 58 -7 13 -7 22 1 30 7 7 9 14 7 17 -3 3 -12 -7 -19 -23z"/>
<path d="M4204 2536 c-7 -15 -8 -30 -2 -40 5 -9 6 -22 2 -29 -5 -9 -4 -9 5 -1
7 6 11 29 9 52 -3 39 -4 40 -14 18z"/>
<path d="M4639 2513 c-35 -72 -40 -85 -29 -78 6 3 10 -1 10 -9 0 -25 14 -19
27 12 7 15 19 43 27 62 15 32 15 34 0 15 -16 -19 -16 -19 -10 13 3 17 4 32 2
32 -2 0 -14 -21 -27 -47z m8 -54 c-6 -10 -15 -15 -20 -10 -5 5 -3 18 4 29 9
14 16 17 20 10 4 -6 2 -19 -4 -29z"/>
<path d="M4714 2536 c-7 -15 -8 -30 -2 -40 5 -9 6 -22 2 -29 -5 -9 -4 -9 5 -1
7 6 11 29 9 52 -3 39 -4 40 -14 18z"/>
<path d="M5224 2536 c-8 -18 -8 -29 2 -47 13 -23 13 -21 14 24 0 26 -1 47 -2
47 -2 0 -8 -11 -14 -24z"/>
<path d="M4453 2523 c-3 -10 -8 -22 -11 -27 -3 -5 0 -6 6 -2 8 4 12 0 12 -10
0 -13 3 -15 11 -7 8 8 8 17 0 31 -6 10 -7 22 -4 26 3 3 3 6 -1 6 -3 0 -9 -8
-13 -17z"/>
<path d="M4963 2523 c-3 -10 -8 -22 -11 -27 -3 -5 0 -6 6 -2 8 4 12 0 12 -10
0 -13 3 -15 11 -7 8 8 8 17 0 31 -6 10 -7 22 -4 26 3 3 3 6 -1 6 -3 0 -9 -8
-13 -17z"/>
<path d="M3871 2516 c-7 -8 -11 -34 -8 -63 l3 -48 3 55 c1 43 4 51 12 37 5 -9
7 -22 3 -29 -4 -7 -3 -8 4 -4 14 8 15 35 3 54 -6 10 -10 10 -20 -2z"/>
<path d="M3941 2520 c1 -29 15 -54 23 -42 4 7 0 22 -8 34 -10 14 -16 17 -15 8z"/>
<path d="M3991 2498 c-11 -26 -23 -124 -15 -115 20 22 52 105 48 123 -8 32
-17 30 -33 -8z m16 -38 c-10 -15 -16 -17 -19 -8 -7 18 14 50 25 39 6 -6 3 -18
-6 -31z"/>
<path d="M4066 2521 c-4 -5 -1 -13 5 -16 6 -4 8 -18 4 -34 l-6 -26 16 23 c14
19 14 24 2 43 -9 12 -18 16 -21 10z"/>
<path d="M4388 2524 c-4 -3 -3 -15 2 -25 6 -9 8 -26 5 -36 -3 -11 -1 -9 6 5
12 22 1 70 -13 56z"/>
<path d="M4497 2490 c-13 -29 -16 -44 -8 -58 7 -13 7 -22 -1 -30 -7 -7 -9 -14
-6 -17 10 -11 58 100 52 123 -9 31 -16 27 -37 -18z m20 -30 c-10 -15 -16 -17
-19 -8 -7 18 14 50 25 39 6 -6 3 -18 -6 -31z"/>
<path d="M4584 2491 c1 -35 2 -37 14 -20 11 16 11 22 -1 39 -14 20 -14 18 -13
-19z"/>
<path d="M4897 2524 c-3 -4 -2 -15 3 -25 6 -9 7 -26 4 -36 -6 -16 -5 -15 9 2
11 15 13 25 5 40 -14 26 -14 26 -21 19z"/>
<path d="M5025 2513 c5 -10 8 -26 9 -35 0 -11 4 -14 9 -9 12 12 0 61 -14 61
-7 0 -8 -7 -4 -17z"/>
<path d="M5091 2520 c1 -29 15 -54 23 -42 4 7 0 22 -8 34 -10 14 -16 17 -15 8z"/>
<path d="M5141 2498 c-11 -26 -23 -124 -15 -115 20 22 52 105 48 123 -8 32
-17 30 -33 -8z m16 -38 c-9 -13 -18 -17 -21 -11 -9 14 16 53 27 42 6 -6 3 -18
-6 -31z"/>
<path d="M2857 2506 c-7 -19 11 -32 24 -19 6 6 5 14 -4 22 -12 9 -16 8 -20 -3z"/>
<path d="M3380 2505 c7 -8 17 -15 22 -15 5 0 3 7 -6 15 -8 8 -18 15 -22 15 -3
0 -1 -7 6 -15z"/>
<path d="M4373 2455 c0 -27 2 -38 4 -22 2 15 2 37 0 50 -2 12 -4 0 -4 -28z"/>
<path d="M4883 2455 c0 -27 2 -38 4 -22 2 15 2 37 0 50 -2 12 -4 0 -4 -28z"/>
<path d="M3914 2472 c-9 -14 -9 -24 0 -40 7 -13 15 -20 19 -16 3 4 2 15 -3 25
-6 9 -7 25 -4 33 8 21 1 20 -12 -2z"/>
<path d="M4042 2470 c-10 -17 -10 -24 1 -41 13 -18 14 -17 13 21 0 22 -1 40
-1 40 0 0 -6 -9 -13 -20z"/>
<path d="M4552 2470 c-10 -17 -10 -24 1 -40 17 -24 30 -15 17 11 -6 9 -7 25
-4 33 9 22 1 20 -14 -4z"/>
<path d="M5064 2472 c-9 -14 -9 -24 0 -40 7 -13 15 -20 19 -16 3 4 2 15 -3 25
-6 9 -7 25 -4 33 8 21 1 20 -12 -2z"/>
<path d="M4425 2469 c-4 -5 -4 -22 0 -36 4 -19 9 -23 17 -15 8 8 8 15 -1 26
-7 8 -10 20 -6 26 3 5 4 10 1 10 -3 0 -8 -5 -11 -11z"/>
<path d="M4935 2469 c-4 -5 -4 -22 0 -36 4 -19 9 -23 17 -15 8 8 8 15 -1 26
-7 8 -10 20 -6 26 3 5 4 10 1 10 -3 0 -8 -5 -11 -11z"/>
<path d="M4167 2463 c-4 -7 -3 -21 2 -31 6 -11 7 -23 3 -27 -4 -5 -2 -5 4 -2
7 4 14 16 17 27 3 11 1 18 -3 15 -5 -3 -10 3 -12 12 -2 13 -6 15 -11 6z"/>
<path d="M4676 2462 c-4 -7 0 -22 8 -34 17 -24 21 -9 7 26 -5 14 -10 16 -15 8z"/>
<path d="M4995 2448 c3 -13 7 -28 7 -35 2 -17 15 -7 21 17 3 11 1 18 -4 14 -5
-3 -9 2 -9 10 0 9 -5 16 -11 16 -7 0 -9 -8 -4 -22z"/>
<path d="M5186 2462 c-4 -7 0 -22 8 -34 17 -24 21 -9 7 26 -5 14 -10 16 -15 8z"/>
<path d="M4210 2421 c0 -11 -5 -21 -11 -23 -6 -2 -5 -14 5 -33 l16 -30 0 53
c0 28 -2 52 -5 52 -3 0 -5 -9 -5 -19z"/>
<path d="M3876 2398 c-12 -22 -16 -48 -14 -78 4 -45 5 -45 6 9 2 49 3 53 16
36 12 -17 13 -15 12 23 0 23 -1 42 -2 42 0 0 -9 -15 -18 -32z"/>
<path d="M4386 2398 c-12 -22 -16 -48 -14 -78 4 -45 5 -45 7 10 1 48 3 53 15
37 12 -15 13 -13 12 23 0 22 -1 40 -2 40 0 0 -9 -15 -18 -32z"/>
<path d="M4522 2410 c-9 -15 -10 -26 -2 -40 15 -28 18 -25 16 20 0 22 -1 40
-1 40 0 0 -6 -9 -13 -20z"/>
<path d="M4722 2418 c-1 -9 -8 -18 -14 -21 -10 -3 -10 -7 1 -20 7 -9 10 -25 7
-34 -5 -13 -4 -15 4 -7 6 6 10 31 7 55 -2 24 -4 37 -5 27z"/>
<path d="M4902 2410 c-10 -17 -10 -24 1 -41 13 -18 14 -17 13 21 0 22 -1 40
-1 40 0 0 -6 -9 -13 -20z"/>
<path d="M5032 2410 c-9 -15 -10 -26 -2 -40 15 -28 18 -25 16 20 0 22 -1 40
-1 40 0 0 -6 -9 -13 -20z"/>
<path d="M5223 2405 c-7 -16 -8 -27 -1 -31 5 -3 7 -15 4 -27 -3 -13 -2 -17 5
-10 6 6 9 29 7 51 -3 40 -3 41 -15 17z"/>
<path d="M3516 2412 c-9 -15 33 -62 56 -62 11 0 18 5 15 13 -2 6 -14 11 -25
10 -17 -2 -21 2 -19 19 2 22 -17 36 -27 20z"/>
<path d="M2993 2387 l-20 -24 25 -28 25 -29 23 29 23 29 -21 23 c-27 28 -30
28 -55 0z"/>
<path d="M4007 2403 c-4 -7 -2 -23 4 -35 10 -18 13 -19 17 -8 3 8 10 22 16 30
9 13 9 13 -6 2 -14 -11 -17 -10 -20 5 -2 13 -6 14 -11 6z"/>
<path d="M4645 2400 c-7 -11 14 -55 22 -47 2 3 0 14 -6 25 -6 11 -7 22 -4 26
3 3 4 6 0 6 -3 0 -9 -4 -12 -10z"/>
<path d="M5157 2403 c-4 -7 -2 -23 4 -35 10 -18 13 -19 17 -8 3 8 10 22 16 30
9 13 9 13 -6 2 -14 -11 -17 -10 -20 5 -2 13 -6 14 -11 6z"/>
<path d="M3944 2361 c1 -35 2 -37 14 -20 10 14 10 24 2 39 -15 28 -18 25 -16
-19z"/>
<path d="M4073 2368 c2 -44 3 -44 16 -19 7 13 6 24 -4 37 -13 17 -14 16 -12
-18z"/>
<path d="M4134 2385 c5 -11 9 -25 9 -32 1 -18 14 -6 20 18 3 11 3 18 0 15 -4
-3 -13 0 -21 7 -14 10 -15 9 -8 -8z"/>
<path d="M4443 2374 c-11 -23 -10 -24 4 -12 15 12 16 10 9 -17 -7 -30 -7 -30
9 -8 12 18 13 27 5 43 -13 25 -13 25 -27 -6z"/>
<path d="M4584 2361 c1 -35 2 -37 14 -20 10 14 10 24 2 39 -15 28 -18 25 -16
-19z"/>
<path d="M4965 2360 c0 -31 2 -35 11 -21 13 20 28 58 18 48 -4 -4 -12 -3 -18
2 -8 7 -11 -2 -11 -29z"/>
<path d="M5094 2361 c1 -35 2 -37 14 -20 10 14 10 24 2 39 -15 28 -18 25 -16
-19z"/>
<path d="M3480 2365 c0 -10 7 -15 18 -13 21 4 19 22 -2 26 -10 2 -16 -3 -16
-13z"/>
<path d="M4172 2350 c-9 -15 -10 -26 -2 -40 8 -15 7 -25 -3 -41 -11 -16 -16
-17 -20 -6 -3 8 0 20 6 26 6 6 8 13 5 16 -2 3 -17 -19 -32 -49 -26 -52 -29
-96 -5 -96 12 0 11 7 -1 31 -8 14 -7 25 3 40 11 16 16 17 20 6 3 -8 0 -20 -6
-26 -6 -6 -8 -13 -5 -16 11 -11 52 91 53 133 0 23 0 42 0 42 0 0 -6 -9 -13
-20z"/>
<path d="M4490 2342 c-22 -43 -24 -47 -15 -40 4 4 14 3 22 -3 15 -13 17 -1 3
21 -5 9 -5 19 2 27 6 8 9 16 6 18 -3 3 -11 -7 -18 -23z"/>
<path d="M4883 2325 c0 -27 2 -38 4 -22 2 15 2 37 0 50 -2 12 -4 0 -4 -28z"/>
<path d="M4989 2323 c-35 -72 -40 -85 -29 -78 6 3 10 -1 10 -9 0 -26 15 -18
29 17 11 25 22 117 15 117 -1 0 -12 -21 -25 -47z m8 -53 c-10 -15 -16 -17 -19
-8 -7 18 14 50 25 39 6 -6 3 -18 -6 -31z"/>
<path d="M3973 2333 c-3 -10 -8 -22 -11 -27 -3 -5 0 -6 6 -2 7 4 12 2 12 -3 0
-6 5 -11 11 -11 7 0 8 7 4 18 -4 9 -8 23 -8 30 -1 17 -7 15 -14 -5z"/>
<path d="M5123 2333 c-3 -10 -8 -22 -11 -27 -3 -5 0 -6 6 -2 8 4 12 0 12 -10
0 -13 3 -15 11 -7 8 8 8 17 0 31 -6 10 -7 22 -4 26 3 3 3 6 -1 6 -3 0 -9 -8
-13 -17z"/>
<path d="M3527 2326 c-4 -10 -5 -21 -2 -24 9 -9 17 6 13 25 -3 17 -4 17 -11
-1z"/>
<path d="M3906 2331 c-4 -5 -1 -13 5 -16 6 -4 8 -18 4 -34 l-6 -26 16 23 c14
19 14 24 2 43 -9 12 -18 16 -21 10z"/>
<path d="M4035 2323 c5 -10 8 -26 9 -35 0 -11 4 -14 9 -9 12 12 0 61 -14 61
-7 0 -8 -7 -4 -17z"/>
<path d="M4101 2328 c1 -27 15 -52 23 -40 4 6 2 21 -4 32 -12 23 -20 26 -19 8z"/>
<path d="M4424 2301 c1 -35 2 -37 14 -20 11 16 11 22 -1 39 -14 20 -14 18 -13
-19z"/>
<path d="M4548 2334 c-4 -3 -3 -15 2 -25 6 -9 8 -26 5 -36 -3 -11 -1 -9 6 5
12 22 1 70 -13 56z"/>
<path d="M4611 2328 c1 -27 15 -52 23 -40 4 6 2 21 -4 32 -12 23 -20 26 -19 8z"/>
<path d="M4670 2334 c0 -3 5 -14 10 -25 8 -14 7 -25 -3 -40 -14 -19 -15 -19
-22 -2 -5 15 -9 12 -22 -17 -9 -19 -17 -54 -17 -77 -1 -37 0 -39 12 -22 10 14
10 24 2 39 -8 15 -7 25 3 41 11 16 16 17 20 6 3 -8 0 -20 -6 -26 -6 -6 -8 -13
-5 -16 10 -11 60 104 53 124 -6 19 -25 30 -25 15z"/>
<path d="M4934 2301 c1 -35 2 -37 14 -20 11 16 11 22 -1 39 -14 20 -14 18 -13
-19z"/>
<path d="M5057 2334 c-3 -4 -2 -15 3 -25 6 -9 7 -26 4 -36 -5 -13 -2 -12 10 5
15 19 15 25 3 42 -8 11 -17 17 -20 14z"/>
<path d="M5185 2323 c5 -10 8 -26 9 -35 0 -11 4 -14 9 -9 12 12 0 61 -14 61
-7 0 -8 -7 -4 -17z"/>
<path d="M4203 2284 c-10 -22 -10 -30 2 -48 14 -19 15 -18 15 27 0 26 -1 47
-2 47 -2 0 -8 -12 -15 -26z"/>
<path d="M4713 2284 c-10 -22 -10 -30 2 -48 14 -19 15 -18 15 27 0 26 -1 47
-2 47 -2 0 -8 -12 -15 -26z"/>
<path d="M4074 2282 c-9 -14 -9 -24 0 -40 7 -13 15 -20 19 -16 3 4 2 15 -3 25
-6 9 -7 25 -4 33 8 21 1 20 -12 -2z"/>
<path d="M4585 2280 c-9 -28 4 -65 18 -51 7 7 7 14 -2 24 -6 8 -9 22 -5 31 3
9 4 16 1 16 -3 0 -9 -9 -12 -20z"/>
<path d="M4903 2282 c-7 -12 -8 -24 -2 -33 5 -8 6 -23 3 -34 -6 -20 -6 -20 9
0 10 13 12 25 6 37 -5 9 -6 24 -3 32 8 22 1 20 -13 -2z"/>
<path d="M5224 2282 c-9 -14 -9 -24 2 -43 13 -23 13 -23 14 19 0 48 -1 49 -16
24z"/>
<path d="M3945 2280 c-10 -16 6 -63 18 -51 7 7 6 15 -2 25 -7 8 -10 20 -6 26
3 5 4 10 1 10 -3 0 -7 -4 -11 -10z"/>
<path d="M4453 2273 c-3 -10 -8 -22 -11 -27 -3 -5 0 -6 6 -2 7 4 12 1 12 -8 0
-27 15 -18 28 17 10 28 10 30 -2 14 -14 -19 -33 -7 -21 13 3 6 4 10 0 10 -3 0
-8 -8 -12 -17z"/>
<path d="M5095 2280 c-10 -16 6 -63 18 -51 7 7 6 15 -2 25 -7 8 -10 20 -6 26
3 5 4 10 1 10 -3 0 -7 -4 -11 -10z"/>
<path d="M3878 2274 c-4 -4 -3 -15 2 -25 6 -9 7 -26 4 -36 -5 -17 -5 -17 6 0
12 19 1 74 -12 61z"/>
<path d="M3992 2248 c-10 -30 -10 -31 3 -14 14 19 21 11 16 -17 -3 -17 17 4
22 23 3 11 1 18 -4 14 -5 -3 -9 2 -9 10 0 27 -15 18 -28 -16z"/>
<path d="M4387 2274 c-3 -4 -2 -15 3 -25 6 -9 7 -26 4 -36 -6 -16 -5 -15 9 2
11 15 13 25 5 40 -14 26 -14 26 -21 19z"/>
<path d="M4516 2272 c-4 -7 -2 -19 4 -27 6 -8 8 -20 4 -27 -5 -10 -4 -10 6 -1
9 8 10 19 3 39 -6 19 -12 24 -17 16z"/>
<path d="M5026 2272 c-4 -7 -3 -19 4 -27 9 -10 8 -19 -1 -37 -11 -21 -13 -21
-19 -3 -4 12 -9 15 -14 7 -4 -6 -2 -21 4 -33 11 -20 12 -19 31 16 15 27 18 44
11 63 -6 18 -11 22 -16 14z"/>
<path d="M5142 2248 c-10 -30 -10 -31 3 -14 14 19 21 11 16 -17 -3 -17 17 4
22 23 3 11 1 18 -4 14 -5 -3 -9 2 -9 10 0 27 -15 18 -28 -16z"/>
<path d="M3164 2237 c-8 -21 2 -35 16 -21 5 5 6 15 0 24 -8 12 -10 12 -16 -3z"/>
<path d="M3863 2185 c1 -81 4 -95 22 -95 9 0 13 13 12 44 -2 35 -4 41 -12 28
-8 -13 -11 -5 -16 38 -6 55 -6 54 -6 -15z m21 -71 c3 -8 2 -12 -4 -9 -6 3 -10
10 -10 16 0 14 7 11 14 -7z"/>
<path d="M4372 2207 c-1 -28 5 -61 15 -80 15 -30 15 -31 -1 -18 -14 12 -16 12
-10 -3 3 -9 12 -16 20 -16 18 0 18 35 0 53 -8 8 -17 36 -19 63 l-3 49 -2 -48z"/>
<path d="M4883 2200 c0 -30 2 -43 4 -27 2 15 2 39 0 55 -2 15 -4 2 -4 -28z"/>
<path d="M3660 2234 c0 -6 6 -17 14 -23 11 -9 15 -8 20 4 4 10 2 14 -5 9 -6
-4 -15 0 -20 7 -5 8 -9 9 -9 3z"/>
<path d="M4042 2220 c-10 -17 -10 -24 1 -41 13 -18 14 -17 13 21 0 22 -1 40
-1 40 0 0 -6 -9 -13 -20z"/>
<path d="M4552 2220 c-10 -17 -10 -24 1 -41 13 -18 14 -17 13 21 0 22 -1 40
-1 40 0 0 -6 -9 -13 -20z"/>
<path d="M5192 2220 c-10 -17 -10 -24 1 -41 13 -18 14 -17 13 21 0 22 -1 40
-1 40 0 0 -6 -9 -13 -20z"/>
<path d="M3911 2212 c-6 -12 -5 -23 3 -34 17 -23 28 -11 15 14 -5 10 -7 23 -4
28 3 6 4 10 1 10 -3 0 -10 -8 -15 -18z"/>
<path d="M4425 2219 c-10 -15 4 -61 15 -54 7 4 6 13 0 26 -6 11 -8 24 -5 29 3
6 4 10 1 10 -3 0 -8 -5 -11 -11z"/>
<path d="M4935 2219 c-9 -14 3 -59 16 -59 7 0 8 7 4 18 -5 9 -8 25 -9 35 0 20
-2 21 -11 6z"/>
<path d="M5060 2215 c-9 -11 -9 -18 3 -35 17 -24 30 -15 16 12 -5 10 -7 23 -4
28 9 15 -1 12 -15 -5z"/>
<path d="M4167 2213 c-4 -7 -3 -22 3 -33 13 -25 16 -25 23 0 3 11 1 18 -3 15
-5 -3 -10 3 -12 12 -2 13 -6 15 -11 6z"/>
<path d="M4676 2212 c-4 -6 -1 -22 5 -34 15 -28 23 -11 11 22 -6 15 -11 19
-16 12z"/>
<path d="M3970 2204 c0 -3 5 -14 10 -24 7 -13 7 -21 0 -25 -5 -3 -10 -11 -10
-18 0 -6 7 -2 15 11 12 16 13 26 5 42 -10 19 -20 26 -20 14z"/>
<path d="M4485 2193 c4 -10 8 -23 8 -30 1 -18 14 -7 20 17 3 11 1 18 -4 14 -5
-3 -9 0 -9 5 0 6 -5 11 -11 11 -7 0 -8 -7 -4 -17z"/>
<path d="M5125 2170 c0 -31 2 -35 11 -21 13 20 28 58 18 48 -4 -4 -12 -3 -18
2 -8 7 -11 -2 -11 -29z"/>
<path d="M3172 2174 c-7 -8 -8 -14 -3 -14 10 0 25 19 20 25 -2 1 -10 -3 -17
-11z"/>
<path d="M3668 2155 c2 -19 9 -38 15 -42 6 -4 8 4 5 21 -3 14 -1 29 3 32 5 3
9 11 9 17 0 7 -4 6 -10 -3 -6 -10 -10 -11 -10 -2 0 6 -4 12 -8 12 -4 0 -6 -16
-4 -35z"/>
<path d="M4010 2153 c-8 -16 -16 -32 -19 -37 -2 -5 1 -6 7 -2 6 3 13 2 16 -3
4 -5 -4 -12 -16 -14 -21 -4 -21 -4 3 -6 24 -1 26 2 25 44 -1 25 -1 45 -2 45 0
0 -7 -12 -14 -27z"/>
<path d="M4212 2168 c-1 -9 -7 -18 -13 -20 -9 -3 -9 -9 0 -25 9 -19 8 -22 -12
-26 l-22 -4 23 -2 c27 -1 35 15 29 61 -2 18 -5 26 -5 16z"/>
<path d="M4522 2160 c-9 -15 -10 -26 -2 -40 8 -15 6 -19 -13 -23 -19 -4 -19
-4 5 -6 25 -1 26 1 25 44 -1 25 -2 45 -2 45 0 0 -6 -9 -13 -20z"/>
<path d="M4714 2156 c-8 -17 -8 -28 -1 -35 6 -6 7 -14 3 -18 -4 -4 -11 -2 -15
6 -7 10 -10 9 -14 -3 -5 -11 -1 -16 14 -16 23 0 32 17 27 59 l-3 31 -11 -24z"/>
<path d="M5160 2153 c-8 -16 -16 -32 -19 -37 -2 -5 1 -6 7 -2 6 3 13 2 16 -3
4 -5 -4 -12 -16 -14 -21 -4 -21 -4 3 -6 24 -1 26 2 25 44 -1 25 -1 45 -2 45 0
0 -7 -12 -14 -27z"/>
<path d="M5227 2158 c-4 -14 -4 -34 0 -44 5 -13 3 -16 -10 -11 -9 3 -19 2 -22
-3 -4 -6 3 -10 15 -10 25 0 33 17 28 62 -3 33 -3 33 -11 6z"/>
<path d="M4133 2143 c-3 -10 -8 -22 -11 -27 -3 -5 0 -6 6 -2 7 4 12 3 12 -3 0
-5 -8 -12 -17 -14 -11 -3 -6 -5 11 -6 25 -1 28 2 21 22 -3 12 -7 28 -7 35 -2
17 -8 15 -15 -5z"/>
<path d="M4645 2150 c-3 -5 -1 -18 5 -29 8 -16 6 -20 -13 -24 -18 -4 -17 -5 7
-6 25 -1 28 2 21 22 -3 12 -7 28 -7 35 -2 15 -5 15 -13 2z"/>
<path d="M3172 2130 c0 -14 2 -19 5 -12 2 6 2 18 0 25 -3 6 -5 1 -5 -13z"/>
<path d="M3945 2126 c5 -23 3 -27 -9 -23 -9 4 -16 2 -16 -4 0 -13 42 -7 47 6
2 6 -4 20 -13 30 -15 19 -15 19 -9 -9z"/>
<path d="M4074 2126 c6 -23 4 -27 -8 -23 -9 4 -18 2 -21 -3 -4 -6 5 -10 19
-10 33 0 41 15 21 42 l-17 23 6 -29z"/>
<path d="M4454 2128 c5 -20 2 -28 -11 -32 -11 -3 -8 -4 6 -3 31 2 36 17 15 42
-15 19 -15 19 -10 -7z"/>
<path d="M4584 2126 c6 -23 4 -27 -8 -23 -9 4 -18 2 -21 -3 -4 -6 5 -10 19
-10 33 0 41 15 21 42 l-17 23 6 -29z"/>
<path d="M4896 2141 c-4 -5 -2 -12 4 -16 5 -3 10 -11 10 -17 0 -6 -7 -5 -17 3
-16 13 -17 12 -4 -3 16 -21 27 -23 34 -5 6 16 -19 52 -27 38z"/>
<path d="M4957 2131 c-3 -11 -1 -19 4 -15 5 3 9 1 9 -5 0 -5 -8 -12 -17 -15
-11 -3 -8 -4 6 -3 30 2 36 17 18 41 -13 18 -14 18 -20 -3z"/>
<path d="M5020 2143 c0 -5 5 -15 10 -23 7 -11 4 -17 -13 -22 -20 -5 -19 -6 6
-7 27 -1 33 11 21 43 -6 16 -24 22 -24 9z"/>
<path d="M5094 2128 c5 -22 2 -27 -16 -31 -16 -4 -14 -5 6 -4 35 2 42 16 20
42 -15 19 -15 19 -10 -7z"/>
<path d="M3219 2053 c-13 -16 -12 -17 4 -4 16 13 21 21 13 21 -2 0 -10 -8 -17
-17z"/>
<path d="M1104 2656 c-3 -8 -4 -31 -1 -52 l4 -39 1 43 c1 26 6 41 12 37 6 -4
7 -11 4 -17 -4 -6 -2 -8 3 -5 6 4 13 16 16 27 4 15 0 20 -14 20 -11 0 -22 -6
-25 -14z"/>
<path d="M1179 2656 c6 -7 9 -22 5 -32 -4 -15 -4 -16 4 -4 6 8 10 19 10 24 0
5 6 13 14 17 9 6 4 9 -16 9 -23 0 -26 -3 -17 -14z"/>
<path d="M1238 2663 c6 -2 12 -11 12 -19 0 -21 17 -17 23 6 4 16 0 20 -21 19
-15 0 -21 -3 -14 -6z"/>
<path d="M1310 2655 c6 -8 8 -20 4 -26 -4 -8 -3 -9 4 -5 7 4 12 13 12 21 0 7
6 16 13 18 6 3 -1 6 -17 6 -24 1 -26 -1 -16 -14z"/>
<path d="M1368 2663 c6 -2 12 -11 12 -19 0 -9 5 -12 10 -9 6 4 8 10 5 15 -3 4
1 11 7 13 7 3 0 5 -17 5 -16 0 -24 -2 -17 -5z"/>
<path d="M1438 2652 c19 -21 27 -20 19 3 -4 8 -13 15 -22 15 -13 0 -12 -3 3
-18z"/>
<path d="M1632 2657 c-6 -7 -10 -57 -9 -117 1 -58 3 -81 5 -51 3 47 5 51 16
35 12 -16 13 -13 12 23 0 34 -2 38 -13 24 -10 -13 -12 -8 -13 32 0 28 4 47 11
47 6 0 8 -7 5 -16 -3 -8 -2 -12 4 -9 6 3 10 12 10 20 0 7 6 16 13 18 6 3 2 6
-9 6 -12 1 -26 -5 -32 -12z"/>
<path d="M1698 2663 c6 -2 12 -11 12 -19 0 -9 5 -12 10 -9 6 4 8 10 5 15 -3 4
1 11 7 13 7 3 0 5 -17 5 -16 0 -24 -2 -17 -5z"/>
<path d="M1765 2656 c17 -12 17 -15 3 -35 -10 -15 -18 -19 -23 -11 -4 6 -1 19
6 28 11 15 11 15 -1 4 -9 -8 -15 -32 -15 -57 0 -25 0 -45 1 -45 2 0 45 86 56
113 6 14 2 17 -19 17 -25 0 -26 -1 -8 -14z"/>
<path d="M1829 2656 c6 -7 9 -22 5 -32 -4 -15 -4 -16 4 -4 6 8 10 19 10 24 0
5 6 13 14 17 9 6 4 9 -16 9 -23 0 -26 -3 -17 -14z"/>
<path d="M1888 2663 c6 -2 12 -11 12 -19 0 -21 17 -17 23 6 4 16 0 20 -21 19
-15 0 -21 -3 -14 -6z"/>
<path d="M1962 2650 c14 -22 24 -19 15 5 -4 8 -11 15 -17 15 -6 0 -6 -7 2 -20z"/>
<path d="M1220 2635 c-13 -16 -6 -65 10 -65 13 0 13 7 -1 31 -7 15 -7 24 2 35
6 8 9 14 6 14 -2 0 -10 -7 -17 -15z"/>
<path d="M1344 2632 c-9 -14 -9 -24 0 -40 7 -13 15 -20 19 -16 3 4 2 15 -3 25
-6 9 -7 25 -4 33 8 21 1 20 -12 -2z"/>
<path d="M1413 2638 c-5 -7 -15 -26 -21 -43 -12 -29 -12 -29 4 -10 16 19 16
19 10 -15 -6 -32 -5 -33 7 -15 8 11 17 31 21 45 5 17 4 21 -2 11 -7 -9 -11
-10 -17 -2 -4 7 -1 18 5 26 7 8 10 15 7 15 -2 0 -9 -6 -14 -12z"/>
<path d="M1672 2630 c-10 -17 -10 -24 1 -40 17 -24 30 -15 17 11 -6 9 -7 25
-4 33 9 22 1 20 -14 -4z"/>
<path d="M1802 2630 c-10 -17 -10 -24 1 -41 13 -18 14 -17 13 21 0 22 -1 40
-1 40 0 0 -6 -9 -13 -20z"/>
<path d="M1870 2635 c-13 -16 -6 -65 10 -65 13 0 13 7 -1 31 -7 15 -7 24 2 35
6 8 9 14 6 14 -2 0 -10 -7 -17 -15z"/>
<path d="M1146 2622 c-4 -7 0 -22 8 -34 17 -24 21 -9 7 26 -5 14 -10 16 -15 8z"/>
<path d="M1277 2623 c-4 -7 -3 -21 2 -31 6 -11 7 -23 3 -27 -4 -5 -2 -5 4 -2
7 4 14 16 17 27 3 11 1 18 -3 15 -5 -3 -10 3 -12 12 -2 13 -6 15 -11 6z"/>
<path d="M1927 2623 c-4 -7 -3 -21 2 -31 6 -11 7 -23 3 -27 -4 -5 -2 -5 4 -2
7 4 14 16 17 27 3 11 1 18 -3 15 -5 -3 -10 3 -12 12 -2 13 -6 15 -11 6z"/>
<path d="M1450 2581 c0 -11 -5 -21 -11 -23 -8 -3 -7 -13 4 -33 l16 -30 1 53
c0 28 -2 52 -5 52 -3 0 -5 -9 -5 -19z"/>
<path d="M1970 2581 c0 -11 -5 -21 -11 -23 -8 -3 -7 -13 4 -33 l16 -30 1 53
c0 28 -2 52 -5 52 -3 0 -5 -9 -5 -19z"/>
<path d="M1312 2570 c-9 -15 -10 -26 -2 -40 15 -28 18 -25 16 20 0 22 -1 40
-1 40 0 0 -6 -9 -13 -20z"/>
<path d="M1110 2551 c-6 -12 -9 -43 -7 -69 l3 -47 2 54 c2 51 3 53 17 35 14
-18 15 -17 9 11 -9 39 -10 40 -24 16z"/>
<path d="M1767 2563 c-4 -7 -2 -23 4 -35 10 -18 13 -19 17 -8 3 8 10 22 16 30
9 13 9 13 -6 2 -14 -11 -17 -10 -20 5 -2 13 -6 14 -11 6z"/>
<path d="M1177 2553 c-4 -3 -2 -12 4 -19 6 -8 9 -21 5 -29 -8 -21 1 -19 13 3
10 18 -10 58 -22 45z"/>
<path d="M1244 2547 c3 -10 6 -25 6 -33 0 -9 5 -12 10 -9 14 9 13 18 -6 41
-14 17 -15 17 -10 1z"/>
<path d="M1374 2521 c1 -35 2 -37 14 -20 10 14 10 24 2 39 -15 28 -18 25 -16
-19z"/>
<path d="M1704 2521 c1 -35 2 -37 14 -20 10 14 10 24 2 39 -15 28 -18 25 -16
-19z"/>
<path d="M1827 2553 c-4 -3 -2 -12 4 -19 6 -8 9 -21 5 -29 -8 -21 1 -19 13 3
10 18 -10 58 -22 45z"/>
<path d="M1894 2547 c3 -10 6 -25 6 -33 0 -9 5 -12 10 -9 14 9 13 18 -6 41
-14 17 -15 17 -10 1z"/>
<path d="M1915 2473 c-16 -32 -32 -67 -37 -78 l-9 -20 17 20 c16 19 16 19 10
-12 -3 -18 -4 -33 -2 -33 2 0 17 29 35 64 31 63 41 95 20 66 -8 -11 -9 -7 -5
18 3 17 4 32 2 32 -1 0 -15 -26 -31 -57z m12 -43 c-10 -15 -16 -17 -19 -8 -7
18 14 50 25 39 6 -6 3 -18 -6 -31z"/>
<path d="M1403 2493 c-3 -10 -8 -22 -11 -27 -3 -5 0 -6 6 -2 8 4 12 0 12 -10
0 -13 3 -15 11 -7 8 8 8 17 0 31 -6 10 -7 22 -4 26 3 3 3 6 -1 6 -3 0 -9 -8
-13 -17z"/>
<path d="M1733 2493 c-3 -10 -8 -22 -11 -27 -3 -5 0 -6 6 -2 8 4 12 0 12 -10
0 -13 3 -15 11 -7 8 8 8 17 0 31 -6 10 -7 22 -4 26 3 3 3 6 -1 6 -3 0 -9 -8
-13 -17z"/>
<path d="M1145 2483 c5 -10 8 -26 9 -35 0 -11 4 -14 9 -9 12 12 0 61 -14 61
-7 0 -8 -7 -4 -17z"/>
<path d="M1211 2490 c1 -29 15 -54 23 -42 4 7 0 22 -8 34 -10 14 -16 17 -15 8z"/>
<path d="M1261 2468 c-11 -26 -23 -124 -15 -115 20 22 52 105 48 123 -8 32
-17 30 -33 -8z m16 -38 c-9 -13 -18 -17 -21 -11 -9 14 16 53 27 42 6 -6 3 -18
-6 -31z"/>
<path d="M1337 2494 c-3 -4 -2 -15 3 -25 6 -9 7 -26 4 -36 -5 -13 -2 -12 10 5
15 19 15 25 3 42 -8 11 -17 17 -20 14z"/>
<path d="M1667 2494 c-3 -4 -2 -15 3 -25 6 -9 7 -26 4 -36 -6 -16 -5 -15 9 2
11 15 13 25 5 40 -14 26 -14 26 -21 19z"/>
<path d="M1795 2483 c5 -10 8 -26 9 -35 0 -11 4 -14 9 -9 12 12 0 61 -14 61
-7 0 -8 -7 -4 -17z"/>
<path d="M1861 2490 c1 -29 15 -54 23 -42 4 7 0 22 -8 34 -10 14 -16 17 -15 8z"/>
<path d="M1432 2422 c-12 -26 -17 -39 -10 -30 11 15 13 15 25 0 11 -15 12 -10
13 31 0 26 -1 47 -2 47 -2 0 -13 -22 -26 -48z"/>
<path d="M1970 2451 c0 -11 -5 -21 -12 -23 -8 -3 -7 -11 5 -28 17 -24 17 -24
17 23 0 26 -2 47 -5 47 -3 0 -5 -9 -5 -19z"/>
<path d="M1184 2442 c-9 -14 -9 -24 0 -40 7 -13 15 -20 19 -16 3 4 2 15 -3 25
-6 9 -7 25 -4 33 8 21 1 20 -12 -2z"/>
<path d="M1834 2442 c-9 -14 -9 -24 0 -40 7 -13 15 -20 19 -16 3 4 2 15 -3 25
-6 9 -7 25 -4 33 8 21 1 20 -12 -2z"/>
<path d="M1375 2440 c-8 -12 5 -60 16 -60 5 0 9 4 9 9 0 5 3 18 6 28 4 13 3
15 -4 4 -11 -15 -27 2 -17 19 3 6 4 10 1 10 -3 0 -7 -4 -11 -10z"/>
<path d="M1705 2439 c-4 -5 -4 -22 0 -36 4 -19 9 -23 17 -15 8 8 8 15 -1 26
-7 8 -10 20 -6 26 3 5 4 10 1 10 -3 0 -8 -5 -11 -11z"/>
<path d="M1112 2422 c-7 -12 -11 -42 -9 -65 3 -42 4 -42 5 8 2 35 5 46 11 35
6 -8 7 -18 4 -24 -3 -5 -1 -6 4 -3 6 4 13 16 16 27 3 11 1 18 -3 15 -5 -3 -10
3 -12 12 -3 16 -6 15 -16 -5z"/>
<path d="M1306 2432 c-4 -7 0 -22 8 -34 17 -24 21 -9 7 26 -5 14 -10 16 -15 8z"/>
<path d="M1638 2434 c-4 -4 -3 -15 2 -25 6 -9 7 -26 4 -36 -5 -17 -5 -17 6 0
12 19 1 74 -12 61z"/>
<path d="M1765 2418 c3 -13 7 -28 7 -35 2 -17 15 -7 21 17 3 11 1 18 -4 14 -5
-3 -9 2 -9 10 0 9 -5 16 -11 16 -7 0 -9 -8 -4 -22z"/>
<path d="M1624 2300 c0 -74 2 -95 5 -60 4 38 8 49 14 37 4 -11 4 -24 0 -29 -3
-7 -1 -8 5 -4 16 10 15 42 -2 59 -8 8 -16 36 -18 63 -2 27 -4 -3 -4 -66z"/>
<path d="M1152 2380 c-9 -15 -10 -26 -2 -40 15 -28 18 -25 16 20 0 22 -1 40
-1 40 0 0 -6 -9 -13 -20z"/>
<path d="M1672 2380 c-10 -17 -10 -24 1 -41 13 -18 14 -17 13 21 0 22 -1 40
-1 40 0 0 -6 -9 -13 -20z"/>
<path d="M1802 2380 c-9 -15 -10 -26 -2 -40 15 -28 18 -25 16 20 0 22 -1 40
-1 40 0 0 -6 -9 -13 -20z"/>
<path d="M1277 2373 c-4 -7 -2 -23 4 -35 10 -18 13 -19 17 -8 3 8 10 22 16 30
9 13 9 13 -6 2 -14 -11 -17 -10 -20 5 -2 13 -6 14 -11 6z"/>
<path d="M1927 2373 c-4 -7 -3 -22 3 -33 13 -25 16 -25 23 0 3 11 1 18 -3 15
-5 -3 -10 3 -12 12 -2 13 -6 15 -11 6z"/>
<path d="M1214 2331 c1 -35 2 -37 14 -20 10 14 10 24 2 39 -15 28 -18 25 -16
-19z"/>
<path d="M1337 2363 c-3 -5 1 -16 8 -26 7 -10 15 -15 18 -10 3 5 -1 16 -8 26
-7 10 -15 15 -18 10z"/>
<path d="M1405 2355 c4 -11 8 -25 8 -32 0 -7 4 -10 9 -7 12 8 10 18 -8 40 -15
19 -16 19 -9 -1z"/>
<path d="M1735 2330 c0 -31 2 -35 11 -21 13 20 28 58 18 48 -4 -4 -12 -3 -18
2 -8 7 -11 -2 -11 -29z"/>
<path d="M1860 2363 c0 -19 11 -43 21 -43 13 0 11 14 -6 36 -8 10 -15 14 -15
7z"/>
<path d="M1450 2323 c0 -14 -3 -24 -6 -20 -4 3 -15 -9 -24 -28 -26 -51 -31
-67 -20 -60 6 3 10 -1 10 -9 0 -9 5 -16 10 -16 6 0 10 4 10 9 0 5 3 18 6 28 4
13 3 14 -4 5 -8 -11 -10 -11 -14 0 -3 8 0 22 7 32 13 17 14 17 24 -1 8 -14 10
-7 11 35 0 28 -2 52 -5 52 -3 0 -5 -12 -5 -27z"/>
<path d="M1116 2308 c-12 -22 -16 -48 -14 -78 4 -45 5 -45 7 10 1 43 4 51 12
37 5 -9 7 -23 3 -30 -4 -7 -3 -9 2 -4 7 7 15 97 8 97 0 0 -9 -15 -18 -32z"/>
<path d="M1759 2293 c-35 -72 -40 -85 -29 -78 6 3 10 -1 10 -9 0 -26 15 -18
29 17 11 25 22 117 15 117 -1 0 -12 -21 -25 -47z m8 -53 c-10 -15 -16 -17 -19
-8 -7 18 14 50 25 39 6 -6 3 -18 -6 -31z"/>
<path d="M1970 2326 c0 -8 -5 -16 -11 -18 -8 -3 -7 -13 4 -33 l16 -30 1 48 c0
26 -2 47 -5 47 -3 0 -5 -6 -5 -14z"/>
<path d="M1243 2303 c-3 -10 -8 -22 -11 -27 -3 -5 0 -6 6 -2 8 4 12 0 12 -10
0 -13 3 -15 11 -7 8 8 8 17 0 31 -6 10 -7 22 -4 26 3 3 3 6 -1 6 -3 0 -9 -8
-13 -17z"/>
<path d="M1893 2303 c-3 -10 -8 -22 -11 -27 -3 -5 0 -6 6 -2 8 4 12 0 12 -10
0 -13 3 -15 11 -7 8 8 8 17 0 31 -6 10 -7 22 -4 26 3 3 3 6 -1 6 -3 0 -9 -8
-13 -17z"/>
<path d="M1177 2304 c-3 -4 -2 -15 3 -25 6 -9 7 -26 4 -36 -5 -13 -2 -12 10 5
15 19 15 25 3 42 -8 11 -17 17 -20 14z"/>
<path d="M1305 2293 c5 -10 8 -26 9 -35 0 -11 4 -14 9 -9 12 12 0 61 -14 61
-7 0 -8 -7 -4 -17z"/>
<path d="M1374 2271 c1 -35 2 -37 14 -20 10 14 10 24 2 39 -15 28 -18 25 -16
-19z"/>
<path d="M1704 2271 c1 -35 2 -37 14 -20 11 16 11 22 -1 39 -14 20 -14 18 -13
-19z"/>
<path d="M1826 2301 c-4 -5 -1 -13 5 -16 6 -4 8 -18 4 -34 l-6 -26 16 23 c14
19 14 24 2 43 -9 12 -18 16 -21 10z"/>
<path d="M1343 2252 c-7 -12 -8 -24 -2 -33 5 -8 6 -23 3 -34 -5 -18 -4 -17 11
3 12 17 14 26 6 36 -6 7 -9 21 -5 30 8 22 2 20 -13 -2z"/>
<path d="M1673 2252 c-7 -12 -8 -24 -2 -33 5 -8 6 -23 3 -34 -6 -20 -6 -20 9
0 10 13 12 25 6 37 -5 9 -6 24 -3 32 8 22 1 20 -13 -2z"/>
<path d="M1215 2250 c-10 -16 6 -63 18 -51 7 7 6 15 -2 25 -7 8 -10 20 -6 26
3 5 4 10 1 10 -3 0 -7 -4 -11 -10z"/>
<path d="M1865 2250 c-10 -16 6 -63 18 -51 7 7 6 15 -2 25 -7 8 -10 20 -6 26
3 5 4 10 1 10 -3 0 -7 -4 -11 -10z"/>
<path d="M1146 2242 c-4 -7 -3 -19 4 -27 9 -10 8 -19 -1 -37 -12 -22 -12 -22
-19 -3 -7 19 -7 19 -19 -3 -10 -18 -10 -27 0 -38 15 -18 29 -18 29 1 0 9 7 27
16 40 12 18 14 31 7 52 -6 18 -12 23 -17 15z m-22 -98 c3 -8 2 -12 -4 -9 -6 3
-10 10 -10 16 0 14 7 11 14 -7z"/>
<path d="M1257 2210 c-14 -30 -16 -44 -8 -59 10 -17 7 -20 -17 -24 l-27 -4 27
-2 c28 -1 29 0 70 92 5 11 4 16 -2 12 -6 -3 -10 1 -10 9 0 27 -14 17 -33 -24z
m20 -31 c-6 -10 -15 -15 -20 -10 -5 5 -3 18 4 29 9 14 16 17 20 10 4 -6 2 -19
-4 -29z"/>
<path d="M1796 2241 c-4 -6 -3 -18 4 -26 9 -10 8 -19 -1 -37 -11 -21 -13 -21
-19 -3 -4 12 -9 15 -14 7 -4 -6 -2 -21 4 -32 9 -17 8 -20 -13 -20 -25 0 -53
42 -41 62 5 7 2 8 -5 3 -8 -4 -11 -18 -7 -36 4 -23 2 -28 -17 -32 -12 -2 4 -4
35 -5 l57 -1 21 42 c16 31 19 48 12 66 -6 17 -11 21 -16 12z"/>
<path d="M1907 2210 c-14 -30 -16 -44 -8 -59 9 -17 7 -20 -14 -24 -25 -4 -25
-4 1 -3 18 1 30 8 35 24 5 14 5 21 0 17 -18 -10 -22 15 -7 37 15 21 22 14 16
-17 -3 -21 18 10 25 35 5 19 4 21 -4 10 -9 -13 -11 -13 -11 3 0 28 -14 19 -33
-23z"/>
<path d="M1452 2203 c-1 -13 -7 -23 -12 -23 -6 0 -8 -11 -4 -25 5 -20 2 -25
-13 -25 -22 0 -48 45 -37 62 5 7 2 8 -5 3 -8 -4 -11 -18 -7 -36 4 -23 1 -28
-17 -32 -12 -2 1 -4 29 -4 68 -1 76 5 71 58 -2 24 -4 34 -5 22z"/>
<path d="M1972 2203 c-1 -12 -8 -23 -14 -26 -10 -3 -10 -7 1 -20 12 -15 10
-18 -10 -26 -13 -5 -17 -10 -9 -10 31 -1 41 15 37 60 -2 24 -4 34 -5 22z"/>
<path d="M1312 2189 c-10 -15 -11 -24 -3 -32 17 -17 13 -25 -11 -30 -20 -4
-20 -4 4 -6 25 -1 26 1 25 44 -1 25 -2 45 -2 45 0 0 -6 -10 -13 -21z"/>
<path d="M1636 2180 c-14 -25 -15 -34 -6 -45 21 -25 29 -17 27 30 -1 25 -2 45
-2 45 -1 0 -9 -14 -19 -30z m8 -36 c3 -8 2 -12 -4 -9 -6 3 -10 10 -10 16 0 14
7 11 14 -7z"/>
<path d="M1832 2189 c-10 -15 -11 -24 -3 -32 17 -17 13 -25 -11 -30 -21 -4
-20 -4 3 -6 28 -1 47 23 28 35 -6 3 -8 17 -5 30 8 30 5 30 -12 3z"/>
<path d="M1180 2185 c-10 -12 -10 -19 -2 -27 18 -18 15 -26 -10 -31 -21 -4
-20 -4 3 -6 28 -1 47 23 28 35 -6 3 -9 15 -6 25 6 23 3 24 -13 4z"/>
<path d="M6764 2646 c-3 -13 -4 -37 -1 -52 3 -22 4 -19 6 14 0 23 6 42 12 42
6 0 8 -7 5 -16 -3 -8 -2 -13 3 -10 5 3 11 15 14 26 4 15 0 20 -14 20 -11 0
-21 -9 -25 -24z"/>
<path d="M6839 2656 c6 -7 9 -22 5 -32 -4 -15 -4 -16 4 -4 6 8 10 19 10 24 0
5 6 13 14 17 9 6 4 9 -16 9 -23 0 -26 -3 -17 -14z"/>
<path d="M6899 2661 c9 -6 12 -18 7 -37 -7 -27 -6 -28 7 -9 29 41 28 55 -1 55
-19 0 -23 -3 -13 -9z"/>
<path d="M6969 2656 c10 -11 10 -20 0 -38 -11 -21 -13 -21 -19 -3 -4 12 -9 15
-14 7 -4 -6 -2 -20 3 -30 6 -11 7 -22 4 -26 -3 -3 -4 -6 0 -6 3 0 16 21 29 48
13 26 27 50 33 54 5 4 -3 8 -19 8 -24 0 -26 -2 -17 -14z"/>
<path d="M7028 2663 c6 -2 12 -11 12 -19 0 -9 5 -12 10 -9 6 4 8 10 5 15 -3 4
1 11 7 13 7 3 0 5 -17 5 -16 0 -24 -2 -17 -5z"/>
<path d="M7098 2652 c19 -21 27 -20 19 3 -4 8 -13 15 -22 15 -13 0 -12 -3 3
-18z"/>
<path d="M7291 2656 c-7 -8 -11 -32 -8 -53 l4 -38 1 43 c1 23 7 42 13 42 6 0
8 -7 5 -16 -3 -8 -2 -12 4 -9 6 3 10 12 10 20 0 7 6 16 13 18 6 3 2 6 -9 6
-12 1 -27 -5 -33 -13z"/>
<path d="M7358 2663 c6 -2 12 -11 12 -19 0 -9 5 -12 10 -9 6 4 8 10 5 15 -3 4
1 11 7 13 7 3 0 5 -17 5 -16 0 -24 -2 -17 -5z"/>
<path d="M7425 2656 c17 -12 17 -15 3 -35 -10 -15 -18 -19 -23 -11 -4 6 -1 19
6 28 11 15 11 15 -1 4 -9 -8 -15 -32 -15 -57 0 -25 0 -45 1 -45 2 0 45 86 56
113 6 14 2 17 -19 17 -25 0 -26 -1 -8 -14z"/>
<path d="M7489 2656 c6 -7 9 -22 5 -32 -4 -15 -4 -16 4 -4 6 8 10 19 10 24 0
5 6 13 14 17 9 6 4 9 -16 9 -23 0 -26 -3 -17 -14z"/>
<path d="M7548 2663 c6 -2 12 -11 12 -19 0 -21 17 -17 23 6 4 16 0 20 -21 19
-15 0 -21 -3 -14 -6z"/>
<path d="M7620 2655 c6 -8 8 -20 4 -27 -5 -10 -4 -10 6 -1 14 13 7 43 -11 43
-8 0 -8 -4 1 -15z"/>
<path d="M6812 2630 c-10 -17 -10 -24 1 -41 13 -18 14 -17 13 21 0 22 -1 40
-1 40 0 0 -6 -9 -13 -20z"/>
<path d="M6880 2635 c-13 -16 -6 -65 10 -65 13 0 13 7 -1 31 -7 15 -7 24 2 35
6 8 9 14 6 14 -2 0 -10 -7 -17 -15z"/>
<path d="M7004 2632 c-9 -14 -9 -24 0 -40 7 -13 15 -20 19 -16 3 4 2 15 -3 25
-6 9 -7 25 -4 33 8 21 1 20 -12 -2z"/>
<path d="M7073 2638 c-4 -7 -8 -32 -8 -55 0 -34 2 -38 11 -25 6 10 14 28 18
42 5 17 4 21 -2 11 -7 -9 -11 -10 -17 -2 -4 7 -1 18 5 26 7 8 10 15 7 15 -3 0
-9 -6 -14 -12z"/>
<path d="M7334 2632 c-9 -14 -9 -24 0 -40 7 -13 15 -20 19 -16 3 4 2 15 -3 25
-6 9 -7 25 -4 33 8 21 1 20 -12 -2z"/>
<path d="M7462 2630 c-10 -17 -10 -24 1 -41 13 -18 14 -17 13 21 0 22 -1 40
-1 40 0 0 -6 -9 -13 -20z"/>
<path d="M7530 2635 c-13 -16 -6 -65 10 -65 13 0 13 7 -1 31 -7 15 -7 24 2 35
6 8 9 14 6 14 -2 0 -10 -7 -17 -15z"/>
<path d="M7587 2623 c-4 -7 -3 -21 2 -31 6 -11 7 -23 3 -27 -4 -5 -2 -5 4 -2
7 4 14 16 17 27 3 11 1 18 -3 15 -5 -3 -10 3 -12 12 -2 13 -6 15 -11 6z"/>
<path d="M7110 2581 c0 -11 -5 -21 -11 -23 -8 -3 -7 -13 4 -33 l16 -30 1 53
c0 28 -2 52 -5 52 -3 0 -5 -9 -5 -19z"/>
<path d="M6972 2570 c-9 -15 -10 -26 -2 -40 15 -28 18 -25 16 20 0 22 -1 40
-1 40 0 0 -6 -9 -13 -20z"/>
<path d="M7296 2558 c-12 -22 -16 -48 -14 -78 4 -45 5 -45 6 9 2 49 3 53 16
36 12 -17 13 -15 12 23 0 23 -1 42 -2 42 0 0 -9 -15 -18 -32z"/>
<path d="M7432 2570 c-10 -16 -10 -25 -1 -43 10 -17 13 -19 17 -7 3 8 10 22
16 30 10 13 9 13 -8 0 -18 -14 -19 -13 -12 13 8 32 5 34 -12 7z"/>
<path d="M7630 2576 c0 -8 -5 -16 -11 -18 -8 -3 -7 -13 4 -33 l16 -30 1 48 c0
26 -2 47 -5 47 -3 0 -5 -6 -5 -14z"/>
<path d="M6772 2552 c-8 -13 -11 -43 -9 -70 l3 -47 2 54 c2 46 4 52 15 38 11
-15 13 -15 24 9 10 21 10 24 -2 14 -10 -9 -14 -7 -17 7 -3 16 -5 15 -16 -5z"/>
<path d="M6837 2553 c-4 -3 -2 -12 4 -19 6 -8 8 -22 5 -31 -7 -17 -6 -17 10
-1 15 14 15 18 2 37 -8 11 -18 18 -21 14z"/>
<path d="M6904 2547 c3 -10 6 -25 6 -33 0 -9 5 -12 10 -9 14 9 13 18 -6 41
-14 17 -15 17 -10 1z"/>
<path d="M7034 2521 c1 -35 2 -37 14 -20 10 14 10 24 2 39 -15 28 -18 25 -16
-19z"/>
<path d="M7364 2521 c1 -35 2 -37 14 -20 10 14 10 24 2 39 -15 28 -18 25 -16
-19z"/>
<path d="M7493 2526 c2 -41 3 -42 16 -18 6 12 5 23 -4 36 -12 16 -14 15 -12
-18z"/>
<path d="M7554 2547 c3 -10 6 -25 6 -33 0 -9 5 -12 10 -9 14 9 13 18 -6 41
-14 17 -15 17 -10 1z"/>
<path d="M6929 2483 c-13 -27 -23 -67 -24 -90 0 -24 0 -43 1 -43 11 0 48 105
49 138 0 23 0 42 -1 42 -1 0 -12 -21 -25 -47z m8 -53 c-10 -15 -16 -17 -19 -8
-7 18 14 50 25 39 6 -6 3 -18 -6 -31z"/>
<path d="M7577 2478 c-24 -48 -28 -98 -8 -98 13 0 34 65 35 108 1 23 1 42 0
42 0 0 -13 -24 -27 -52z m10 -48 c-10 -15 -16 -17 -19 -8 -7 18 14 50 25 39 6
-6 3 -18 -6 -31z"/>
<path d="M7063 2493 c-3 -10 -8 -22 -11 -27 -3 -5 0 -6 6 -2 14 8 16 -22 3
-43 -11 -17 -25 3 -15 22 5 9 4 9 -5 1 -12 -11 -6 -64 8 -64 14 0 40 83 31
100 -5 9 -6 20 -3 24 3 3 3 6 -1 6 -3 0 -9 -8 -13 -17z"/>
<path d="M7393 2493 c-3 -10 -8 -22 -11 -27 -3 -5 0 -6 6 -2 8 4 12 0 12 -10
0 -13 3 -15 11 -7 8 8 8 17 0 31 -6 10 -7 22 -4 26 3 3 3 6 -1 6 -3 0 -9 -8
-13 -17z"/>
<path d="M6807 2494 c-3 -4 -2 -15 4 -26 5 -10 7 -24 3 -30 -4 -7 -3 -8 4 -4
7 4 12 15 12 24 0 22 -14 44 -23 36z"/>
<path d="M6871 2490 c1 -29 15 -54 23 -42 4 7 0 22 -8 34 -10 14 -16 17 -15 8z"/>
<path d="M6997 2494 c-3 -4 -2 -15 3 -25 6 -9 7 -26 4 -36 -5 -13 -2 -12 10 5
15 19 15 25 3 42 -8 11 -17 17 -20 14z"/>
<path d="M7327 2494 c-3 -4 -2 -15 3 -25 6 -9 7 -26 4 -36 -6 -16 -5 -15 9 2
11 15 13 25 5 40 -14 26 -14 26 -21 19z"/>
<path d="M7457 2494 c-3 -4 -2 -15 4 -26 5 -10 7 -24 3 -30 -4 -7 -3 -8 4 -4
7 4 12 15 12 24 0 22 -14 44 -23 36z"/>
<path d="M7521 2490 c1 -29 15 -54 23 -42 4 7 0 22 -8 34 -10 14 -16 17 -15 8z"/>
<path d="M7111 2458 c0 -14 -6 -28 -12 -30 -9 -3 -8 -11 2 -28 l14 -25 3 28
c2 15 1 39 -1 55 l-4 27 -2 -27z"/>
<path d="M7623 2444 c-10 -22 -10 -30 2 -48 14 -19 15 -18 15 27 0 26 -1 47
-2 47 -2 0 -8 -12 -15 -26z"/>
<path d="M6844 2442 c-9 -14 -9 -24 0 -40 7 -13 15 -20 19 -16 3 4 2 15 -3 25
-6 9 -7 25 -4 33 8 21 1 20 -12 -2z"/>
<path d="M7494 2442 c-9 -14 -9 -24 0 -40 7 -13 15 -20 19 -16 3 4 2 15 -3 25
-6 9 -7 25 -4 33 8 21 1 20 -12 -2z"/>
<path d="M7365 2440 c-10 -16 6 -63 18 -51 7 7 6 15 -2 25 -7 8 -10 20 -6 26
3 5 4 10 1 10 -3 0 -7 -4 -11 -10z"/>
<path d="M6772 2422 c-7 -12 -11 -42 -9 -65 3 -42 4 -42 5 8 2 35 5 46 11 35
6 -8 7 -18 4 -24 -3 -5 -1 -6 4 -3 6 4 13 16 16 27 3 11 1 18 -3 15 -5 -3 -10
3 -12 12 -3 16 -6 15 -16 -5z"/>
<path d="M6966 2432 c-4 -7 0 -22 8 -34 17 -24 21 -9 7 26 -5 14 -10 16 -15 8z"/>
<path d="M7292 2423 c-17 -31 -15 -99 3 -134 9 -16 13 -35 9 -41 -4 -7 -3 -8
4 -4 17 10 15 42 -3 60 -9 9 -15 33 -15 63 1 44 2 47 15 29 17 -22 19 -6 6 29
-8 19 -8 19 -19 -2z"/>
<path d="M7417 2410 c-14 -26 -14 -30 -2 -16 14 19 21 11 16 -17 -3 -17 17 4
22 23 3 11 1 18 -3 15 -5 -3 -10 3 -12 12 -3 14 -8 9 -21 -17z"/>
<path d="M6812 2380 c-9 -15 -10 -26 -2 -40 15 -28 18 -25 16 20 0 22 -1 40
-1 40 0 0 -6 -9 -13 -20z"/>
<path d="M7462 2380 c-9 -15 -10 -26 -2 -40 15 -28 18 -25 16 20 0 22 -1 40
-1 40 0 0 -6 -9 -13 -20z"/>
<path d="M7331 2372 c-10 -18 10 -58 22 -45 4 3 2 12 -4 19 -6 8 -9 21 -5 29
8 21 -1 19 -13 -3z"/>
<path d="M6937 2373 c-4 -7 -2 -23 4 -35 10 -18 13 -19 17 -8 3 8 10 22 16 30
9 13 9 13 -6 2 -14 -11 -17 -10 -20 5 -2 13 -6 14 -11 6z"/>
<path d="M7587 2373 c-4 -7 -3 -22 3 -33 13 -25 16 -25 23 0 3 11 1 18 -3 15
-5 -3 -10 3 -12 12 -2 13 -6 15 -11 6z"/>
<path d="M6874 2331 c1 -35 2 -37 14 -20 10 14 10 24 2 39 -15 28 -18 25 -16
-19z"/>
<path d="M7000 2359 c0 -20 16 -43 23 -32 3 4 -1 17 -9 28 -10 13 -14 15 -14
4z"/>
<path d="M7065 2355 c4 -11 8 -25 8 -32 0 -7 4 -10 9 -7 12 8 10 18 -8 40 -15
19 -16 19 -9 -1z"/>
<path d="M7395 2331 c0 -35 1 -37 13 -20 10 14 10 24 2 39 -14 27 -15 26 -15
-19z"/>
<path d="M7524 2331 c1 -35 2 -37 14 -20 10 14 10 24 2 39 -15 28 -18 25 -16
-19z"/>
<path d="M7110 2331 c0 -11 -3 -21 -7 -23 -8 -3 -66 -117 -77 -151 -3 -11 -2
-16 4 -12 6 3 10 2 10 -4 0 -5 -10 -12 -22 -14 -13 -2 -3 -4 22 -5 75 0 80 3
79 56 -1 26 -4 37 -6 25 -2 -13 -9 -23 -14 -23 -5 0 -7 -11 -3 -25 5 -20 2
-25 -13 -25 -29 0 -47 45 -29 71 11 17 14 17 19 5 4 -9 2 -18 -3 -21 -6 -4
-10 -11 -10 -18 0 -17 26 23 34 53 5 17 4 20 -2 12 -8 -11 -10 -11 -14 0 -3 8
0 22 7 32 13 17 14 17 24 -1 8 -14 10 -7 11 35 0 28 -2 52 -5 52 -3 0 -5 -9
-5 -19z"/>
<path d="M6776 2308 c-12 -22 -16 -48 -14 -78 4 -45 5 -45 7 10 1 43 4 51 12
37 5 -9 7 -23 3 -30 -4 -7 -3 -9 2 -4 7 7 15 97 8 97 0 0 -9 -15 -18 -32z"/>
<path d="M7419 2293 c-35 -72 -40 -85 -29 -78 6 3 10 -1 10 -9 0 -26 15 -18
29 17 11 25 22 117 15 117 -1 0 -12 -21 -25 -47z m8 -53 c-10 -15 -16 -17 -19
-8 -7 18 14 50 25 39 6 -6 3 -18 -6 -31z"/>
<path d="M7632 2328 c-1 -9 -7 -18 -13 -20 -9 -3 -9 -10 0 -26 7 -12 9 -28 5
-35 -5 -9 -4 -9 5 -1 7 7 11 29 8 55 -2 24 -4 37 -5 27z"/>
<path d="M6903 2303 c-3 -10 -8 -22 -11 -27 -3 -5 0 -6 6 -2 8 4 12 0 12 -10
0 -13 3 -15 11 -7 8 8 8 17 0 31 -6 10 -7 22 -4 26 3 3 3 6 -1 6 -3 0 -9 -8
-13 -17z"/>
<path d="M7553 2303 c-3 -10 -8 -22 -11 -27 -3 -5 0 -6 6 -2 8 4 12 0 12 -10
0 -13 3 -15 11 -7 8 8 8 17 0 31 -6 10 -7 22 -4 26 3 3 3 6 -1 6 -3 0 -9 -8
-13 -17z"/>
<path d="M6836 2301 c-4 -5 -1 -13 5 -16 6 -4 8 -18 4 -34 l-6 -26 16 23 c14
19 14 24 2 43 -9 12 -18 16 -21 10z"/>
<path d="M6965 2293 c5 -10 8 -26 9 -35 0 -11 4 -14 9 -9 12 12 0 61 -14 61
-7 0 -8 -7 -4 -17z"/>
<path d="M7031 2298 c1 -27 15 -52 23 -40 4 6 2 21 -4 32 -12 23 -20 26 -19 8z"/>
<path d="M7364 2271 c1 -35 2 -37 14 -20 10 14 10 24 2 39 -15 28 -18 25 -16
-19z"/>
<path d="M7486 2301 c-4 -5 -1 -13 5 -16 6 -4 8 -18 4 -34 l-6 -26 16 23 c14
19 14 24 2 43 -9 12 -18 16 -21 10z"/>
<path d="M7283 2235 c0 -27 2 -38 4 -22 2 15 2 37 0 50 -2 12 -4 0 -4 -28z"/>
<path d="M7004 2252 c-9 -14 -9 -24 0 -40 7 -13 15 -20 19 -16 3 4 2 15 -3 25
-6 9 -7 25 -4 33 8 21 1 20 -12 -2z"/>
<path d="M7333 2252 c-7 -12 -8 -24 -2 -33 5 -8 6 -23 3 -34 -6 -20 -6 -20 9
0 10 13 12 25 6 37 -5 9 -6 24 -3 32 8 22 1 20 -13 -2z"/>
<path d="M6875 2250 c-10 -16 6 -63 18 -51 7 7 6 15 -2 25 -7 8 -10 20 -6 26
3 5 4 10 1 10 -3 0 -7 -4 -11 -10z"/>
<path d="M7525 2250 c-10 -16 6 -63 18 -51 7 7 6 15 -2 25 -7 8 -10 20 -6 26
3 5 4 10 1 10 -3 0 -7 -4 -11 -10z"/>
<path d="M6806 2242 c-4 -7 -3 -19 4 -27 9 -10 8 -19 -1 -37 -12 -22 -12 -22
-19 -3 -7 19 -7 19 -19 -3 -10 -18 -10 -27 0 -38 15 -18 29 -18 29 1 0 9 7 27
16 40 12 18 14 31 7 52 -6 18 -12 23 -17 15z m-22 -98 c3 -8 2 -12 -4 -9 -6 3
-10 10 -10 16 0 14 7 11 14 -7z"/>
<path d="M6922 2218 c-10 -30 -10 -31 3 -14 14 19 21 11 16 -17 -3 -17 17 4
22 23 3 11 1 18 -4 14 -5 -3 -9 2 -9 10 0 27 -15 18 -28 -16z"/>
<path d="M7456 2242 c-4 -7 -3 -19 4 -27 9 -10 8 -19 -1 -37 -11 -21 -13 -21
-19 -3 -4 12 -9 15 -14 7 -4 -6 -2 -21 4 -32 9 -17 8 -20 -13 -20 -25 0 -53
42 -41 62 5 7 2 8 -5 3 -8 -4 -11 -18 -7 -36 4 -23 2 -28 -17 -32 -12 -2 6 -4
41 -5 49 -1 62 2 62 14 0 8 7 26 16 39 12 18 14 31 7 52 -6 18 -12 23 -17 15z"/>
<path d="M7572 2218 c-10 -30 -10 -31 3 -14 14 19 21 11 16 -17 -3 -17 17 4
22 23 3 11 1 18 -4 14 -5 -3 -9 2 -9 10 0 27 -15 18 -28 -16z"/>
<path d="M7632 2203 c-1 -12 -8 -23 -14 -26 -10 -3 -10 -7 1 -20 12 -15 10
-18 -10 -26 -13 -5 -17 -10 -9 -10 31 -1 41 15 37 60 -2 24 -4 34 -5 22z"/>
<path d="M6972 2189 c-10 -15 -11 -24 -3 -32 17 -17 13 -25 -11 -30 -20 -4
-20 -4 4 -6 25 -1 26 1 25 44 -1 25 -2 45 -2 45 0 0 -6 -10 -13 -21z"/>
<path d="M7296 2180 c-14 -25 -15 -34 -6 -45 21 -25 29 -17 27 30 -1 25 -2 45
-2 45 -1 0 -9 -14 -19 -30z m14 -41 c0 -6 -4 -7 -10 -4 -5 3 -10 11 -10 16 0
6 5 7 10 4 6 -3 10 -11 10 -16z"/>
<path d="M7492 2185 c-7 -15 -8 -27 -2 -30 17 -10 11 -23 -12 -28 -21 -4 -20
-4 3 -6 29 -1 42 18 28 40 -5 8 -6 22 -3 32 8 25 -1 21 -14 -8z"/>
<path d="M6840 2185 c-10 -12 -10 -19 -2 -27 18 -18 15 -26 -10 -31 -20 -4
-20 -4 4 -6 29 -1 40 15 26 42 -5 9 -6 22 -3 27 10 16 -1 12 -15 -5z"/>
<path d="M6900 2175 c0 -5 5 -17 10 -25 7 -12 3 -17 -18 -22 l-27 -7 29 2 c35
2 42 16 21 42 -8 11 -14 16 -15 10z"/>
<path d="M7550 2175 c0 -5 5 -17 10 -25 7 -12 3 -17 -18 -22 l-27 -7 29 2 c35
2 42 16 21 42 -8 11 -14 16 -15 10z"/>
<path d="M3255 1175 c-4 -27 -12 -56 -17 -62 -8 -9 -6 -13 6 -13 9 0 16 7 16
15 0 8 5 15 11 15 6 0 9 -7 5 -15 -3 -9 0 -15 8 -15 9 0 12 7 9 20 -3 11 -12
20 -19 20 -8 0 -14 8 -14 18 0 14 2 15 10 2 8 -12 10 -12 9 5 0 11 -4 29 -8
40 -7 16 -10 9 -16 -30z"/>
<path d="M4039 1162 c-12 -48 -13 -62 -3 -62 7 0 15 8 17 18 4 16 5 16 6 0 0
-10 7 -18 15 -18 11 0 11 8 -1 53 -7 28 -14 56 -16 61 -2 6 -10 -18 -18 -52z
m18 -14 c-3 -8 -6 -5 -6 6 -1 11 2 17 5 13 3 -3 4 -12 1 -19z"/>
<path d="M3258 1072 c-32 -4 -34 -9 -12 -40 15 -22 17 -22 35 -6 19 17 25 40
12 46 -5 2 -20 2 -35 0z"/>
<path d="M4038 1055 c-10 -21 -9 -28 2 -35 33 -20 56 24 25 50 -12 10 -17 7
-27 -15z"/>
<path d="M3428 919 c-27 -15 -22 -61 10 -105 50 -68 55 -70 96 -24 59 66 67
108 24 131 -14 8 -25 7 -42 -4 -19 -13 -25 -13 -41 -1 -22 16 -25 17 -47 3z"/>
<path d="M4246 881 c-35 -50 -32 -86 6 -86 24 1 27 -2 22 -22 -5 -17 -2 -23
11 -23 13 0 16 6 11 23 -5 20 -2 23 22 22 21 0 28 5 30 23 4 26 -43 102 -63
102 -7 0 -25 -18 -39 -39z"/>
<path d="M4502 653 c-15 -15 -6 -56 11 -50 22 7 31 34 16 49 -12 13 -17 13
-27 1z"/>
<path d="M3700 641 c-16 -31 -12 -40 20 -39 39 1 47 14 24 39 -22 24 -31 24
-44 0z"/>
<path d="M3700 543 c4 -16 12 -41 16 -58 l7 -30 7 25 c13 42 11 70 -5 70 -8 0
-15 5 -15 10 0 6 -4 10 -9 10 -6 0 -7 -11 -1 -27z m27 -35 c-3 -7 -5 -2 -5 12
0 14 2 19 5 13 2 -7 2 -19 0 -25z"/>
<path d="M4494 515 c12 -64 23 -70 31 -17 3 20 10 45 16 55 7 13 5 17 -6 17
-8 0 -15 -4 -15 -10 0 -5 -5 -10 -11 -10 -5 0 -7 5 -4 10 3 6 0 10 -7 10 -11
0 -12 -10 -4 -55z m23 3 c-3 -8 -6 -5 -6 6 -1 11 2 17 5 13 3 -3 4 -12 1 -19z"/>
</g>
</svg>
